<svg width="50" height="50" viewBox="0 0 50 50" xmlns="http://www.w3.org/2000/svg">
<g clip-path="url(#clip0)">
<path d="M25.0082 12.1626C17.9186 12.1626 12.179 17.9084 12.179 24.9918C12.179 32.0813 17.9248 37.8209 25.0082 37.8209C32.0978 37.8209 37.8373 32.0751 37.8373 24.9918C37.8373 17.9022 32.0915 12.1626 25.0082 12.1626ZM25.0082 33.3188C20.4061 33.3188 16.6811 29.5918 16.6811 24.9918C16.6811 20.3918 20.4082 16.6647 25.0082 16.6647C29.6082 16.6647 33.3353 20.3918 33.3353 24.9918C33.3373 29.5918 29.6103 33.3188 25.0082 33.3188Z" />
<path d="M35.3086 0.157544C30.7086 -0.0570395 19.3149 -0.0466228 14.7107 0.157544C10.6649 0.347127 7.09612 1.32421 4.21904 4.20129C-0.589293 9.00963 0.0252904 15.4888 0.0252904 24.9909C0.0252904 34.7159 -0.516376 41.045 4.21904 45.7805C9.04612 50.6055 15.619 49.9742 25.0086 49.9742C34.642 49.9742 37.967 49.9805 41.3732 48.6617C46.0045 46.8638 49.5003 42.7242 49.842 35.2888C50.0586 30.6867 50.0461 19.295 49.842 14.6909C49.4295 5.91379 44.719 0.590877 35.3086 0.157544ZM42.5899 42.5992C39.4378 45.7513 35.0649 45.47 24.9482 45.47C14.5315 45.47 10.3545 45.6242 7.30654 42.568C3.79612 39.0742 4.43154 33.4638 4.43154 24.9575C4.43154 13.4471 3.25029 5.15754 14.8024 4.56588C17.4565 4.47213 18.2378 4.44088 24.919 4.44088L25.0128 4.50338C36.1149 4.50338 44.8253 3.34088 45.3482 14.8909C45.467 17.5263 45.494 18.318 45.494 24.9888C45.492 35.2846 45.6878 39.4867 42.5899 42.5992Z" />
<path d="M38.3458 14.6547C40.0015 14.6547 41.3437 13.3125 41.3437 11.6568C41.3437 10.0011 40.0015 8.65894 38.3458 8.65894C36.6901 8.65894 35.3479 10.0011 35.3479 11.6568C35.3479 13.3125 36.6901 14.6547 38.3458 14.6547Z" />
</g>
<defs>
<clipPath id="clip0">
<rect width="50" height="50" fill="white"/>
</clipPath>
</defs>
</svg>
