<svg width="50" height="50" viewBox="0 0 50 50" xmlns="http://www.w3.org/2000/svg">
<g clip-path="url(#clip0)">
<path d="M41.4896 27.142C40.6813 26.1212 40.9125 25.667 41.4896 24.7545C41.5 24.7441 48.1729 15.5232 48.8604 12.3962L48.8646 12.3941C49.2062 11.2545 48.8646 10.417 47.2125 10.417H41.7458C40.3542 10.417 39.7125 11.1357 39.3687 11.9399C39.3687 11.9399 36.5854 18.6024 32.6479 22.9212C31.3771 24.1691 30.7896 24.5691 30.0958 24.5691C29.7542 24.5691 29.2229 24.1691 29.2229 23.0295V12.3941C29.2229 11.0274 28.8333 10.417 27.6812 10.417H19.0854C18.2125 10.417 17.6937 11.0545 17.6937 11.6482C17.6937 12.9441 19.6625 13.242 19.8667 16.8878V24.7982C19.8667 26.5316 19.5521 26.8503 18.8542 26.8503C16.9958 26.8503 12.4854 20.1607 9.8125 12.5045C9.27292 11.0191 8.74583 10.4191 7.34375 10.4191H1.875C0.314583 10.4191 0 11.1378 0 11.942C0 13.3628 1.85833 20.4274 8.64167 29.7607C13.1625 36.1316 19.5292 39.5837 25.3208 39.5837C28.8021 39.5837 29.2271 38.817 29.2271 37.4982C29.2271 31.4107 28.9125 30.8357 30.6562 30.8357C31.4646 30.8357 32.8562 31.2357 36.1062 34.3087C39.8208 37.9524 40.4313 39.5837 42.5104 39.5837H47.9771C49.5354 39.5837 50.325 38.817 49.8708 37.3045C48.8312 34.1232 41.8063 27.5795 41.4896 27.142Z" />
</g>
<defs>
<clipPath id="clip0">
<rect width="50" height="50" fill="white"/>
</clipPath>
</defs>
</svg>
