<svg width="50" height="50" viewBox="0 0 50 50" xmlns="http://www.w3.org/2000/svg">
<g clip-path="url(#clip0)">
<path d="M36.4729 29.8065L36.4541 29.9628C31.8729 27.6794 31.3937 27.3753 30.8021 28.2628C30.3916 28.8774 29.1958 30.2711 28.8354 30.6836C28.4708 31.0899 28.1083 31.1211 27.4896 30.8399C26.8646 30.5274 24.8583 29.8711 22.4833 27.7461C20.6333 26.0899 19.3916 24.0586 19.025 23.4336C18.4146 22.3794 19.6916 22.2294 20.8541 20.0294C21.0625 19.5919 20.9562 19.2482 20.8021 18.9378C20.6458 18.6253 19.4021 15.5628 18.8812 14.3419C18.3812 13.1253 17.8666 13.2794 17.4812 13.2794C16.2812 13.1753 15.4041 13.1919 14.6312 13.9961C11.2687 17.6919 12.1166 21.5044 14.9937 25.5586C20.6479 32.9586 23.6604 34.3211 29.1687 36.2128C30.6562 36.6857 32.0125 36.619 33.0854 36.4649C34.2812 36.2753 36.7666 34.9628 37.2854 33.494C37.8166 32.0253 37.8166 30.8065 37.6604 30.5253C37.5062 30.244 37.0979 30.0878 36.4729 29.8065Z" />
<path d="M42.75 7.18607C26.7312 -8.29934 0.220833 2.93191 0.210417 24.7777C0.210417 29.1444 1.35417 33.4027 3.53333 37.1632L0 50.0007L13.1979 46.559C29.6667 55.4548 49.9917 43.6423 50 24.7902C50 18.1736 47.4167 11.9465 42.7187 7.26732L42.75 7.18607ZM45.8375 24.7215C45.825 40.6236 28.3687 50.5548 14.5625 42.4382L13.8125 41.9923L6 44.0236L8.09375 36.4298L7.59583 35.6486C-0.995834 21.9715 8.875 4.09649 25.15 4.09649C30.6792 4.09649 35.8687 6.25274 39.7771 10.159C43.6833 14.0319 45.8375 19.2215 45.8375 24.7215Z" />
</g>
<defs>
<clipPath id="clip0">
<rect width="50" height="50" fill="white"/>
</clipPath>
</defs>
</svg>
