<svg width="14" height="20" viewBox="0 0 14 20" fill="none" xmlns="http://www.w3.org/2000/svg">
<path d="M10.904 18.2423L10.904 12.5559L12.7762 10.6915C13.8332 9.63457 13.9261 7.9573 12.9923 6.79016L10.1329 3.21598C10.6016 2.89996 10.9105 2.36422 10.9105 1.7577L10.9105 0.585898C10.9105 0.262305 10.6482 -1.30567e-07 10.3247 -1.4471e-07L0.950589 -5.54465e-07C0.627034 -5.68608e-07 0.36469 0.262304 0.36469 0.585898L0.36469 1.75766C0.36469 2.445 0.761525 3.04113 1.33793 3.32988C0.692111 5.08305 0.36469 6.9184 0.364689 8.79238C0.364689 9.04012 0.364689 10.8838 0.364689 11.1317C0.364689 12.1009 1.15317 12.8894 2.12234 12.8894C2.35106 12.8894 2.56953 12.845 2.77016 12.7651C2.9734 13.511 3.65641 14.0611 4.46586 14.0611C4.69457 14.0611 4.91305 14.0168 5.11367 13.9369C5.31691 14.6828 5.99992 15.2329 6.80937 15.2329C7.01523 15.2329 7.21281 15.197 7.39656 15.1317L7.39656 18.2423C7.39656 19.2115 8.18504 20 9.15422 20L9.15812 20C10.1251 20 10.904 19.2115 10.904 18.2423ZM2.12234 2.34352C1.7993 2.34352 1.53645 2.0807 1.53645 1.75762L1.53645 1.17176L9.73879 1.17176L9.73879 1.75766C9.73879 2.0807 9.47598 2.34355 9.15289 2.34355L2.12234 2.34352ZM9.15422 18.8282C8.83117 18.8282 8.56051 18.5654 8.56051 18.2423L8.56051 11.1376C8.56051 10.814 8.30602 10.5517 7.98242 10.5517C7.65887 10.5517 7.39652 10.814 7.39652 11.1376L7.39652 13.4496C7.39613 13.4582 7.39523 13.4666 7.39523 13.4752C7.39523 13.7983 7.13242 14.0611 6.80934 14.0611C6.48629 14.0611 6.22344 13.7983 6.22344 13.4752L6.22344 11.1317C6.22344 10.8082 5.96113 10.5458 5.63754 10.5458C5.31395 10.5458 5.05164 10.8081 5.05164 11.1317L5.05164 12.3035C5.05164 12.6265 4.78883 12.8894 4.46574 12.8894C4.14266 12.8894 3.87984 12.6266 3.87984 12.3035L3.87984 11.1317C3.87984 10.8082 3.61754 10.5458 3.29395 10.5458C2.97035 10.5458 2.70805 10.8081 2.70805 11.1317C2.70805 11.4548 2.44524 11.7176 2.12215 11.7176C1.79906 11.7176 1.53625 11.4548 1.53625 11.1317C1.53625 10.8836 1.53625 9.04012 1.53625 8.79238C1.53625 6.97895 1.86707 5.20457 2.51992 3.51527L8.87184 3.51527L12.0773 7.52211C12.6376 8.22234 12.5818 9.22871 11.9477 9.86293L10.904 10.8988C10.904 8.91973 10.9066 10.8832 10.9066 8.78816C10.9066 8.46461 10.6443 8.20227 10.3207 8.20227C9.99715 8.20227 9.74262 8.46457 9.74262 8.78816C9.74262 8.91668 9.74 18.1136 9.74 18.2423C9.74 18.5654 9.47894 18.8282 9.15801 18.8282L9.15422 18.8282Z" fill="#1E252B"/>
</svg>
