<svg width="200" height="21" viewBox="0 0 200 21" fill="none" xmlns="http://www.w3.org/2000/svg">
<path fill-rule="evenodd" clip-rule="evenodd" d="M198.952 14.1484C198.202 15.2662 197.134 16.1446 195.88 16.6748C194.416 17.3023 192.83 17.6093 191.232 17.5742H188.036V20.99H183.534V17.5843H180.338C178.74 17.6194 177.154 17.3124 175.691 16.6849C174.427 16.1581 173.35 15.2795 172.593 14.1585C171.9 13.0653 171.542 11.8012 171.56 10.5153C171.541 9.22768 171.9 7.96176 172.593 6.86707C173.351 5.7472 174.428 4.86899 175.691 4.3406C177.155 3.71714 178.741 3.41201 180.338 3.44623H183.534V0.000130263H188.036V3.41592H191.232C192.829 3.38217 194.415 3.68729 195.88 4.31028C197.133 4.84232 198.2 5.72027 198.952 6.83675C199.647 7.9304 200.006 9.19704 199.985 10.485C200.005 11.7712 199.647 13.0361 198.952 14.1281V14.1484ZM183.539 7.36226H180.343C178.959 7.36226 177.906 7.64522 177.245 8.2061C176.91 8.4874 176.646 8.84112 176.475 9.23927C176.304 9.63743 176.23 10.0691 176.259 10.5001C176.229 10.9305 176.303 11.3617 176.474 11.7592C176.645 12.1566 176.909 12.5093 177.245 12.7891C177.932 13.35 178.985 13.638 180.343 13.638H183.539V7.36226ZM194.382 8.2061C193.69 7.64522 192.642 7.36226 191.258 7.36226H188.062V13.6431H191.258C192.642 13.6431 193.69 13.355 194.382 12.7942C194.717 12.5136 194.98 12.1608 195.151 11.7635C195.322 11.3662 195.397 10.9354 195.368 10.5052C195.396 10.0743 195.321 9.64298 195.15 9.24502C194.979 8.84705 194.716 8.49321 194.382 8.21115V8.2061ZM167.847 20.7172L166.298 16.3464H155.584L154.009 20.7172H149.331L156.767 0.272989H165.23L172.655 20.7172H167.847ZM161.899 4.10817H160.02L156.968 12.5163H164.92L161.899 4.10817ZM147.24 12.016C145.955 12.5636 144.563 12.8309 143.161 12.7992H137.347V20.7172H132.845V0.272989H143.171C144.574 0.240445 145.966 0.50953 147.25 1.06125C148.353 1.5354 149.293 2.31089 149.956 3.29464C150.585 4.26353 150.912 5.39088 150.896 6.53863C150.911 7.6847 150.584 8.81024 149.956 9.77756C149.291 10.7615 148.352 11.5383 147.25 12.016H147.24ZM145.505 4.78526C144.785 4.31632 143.925 4.09747 143.063 4.16375H137.347V8.93372H143.058C143.921 8.99971 144.781 8.77896 145.5 8.30716C145.751 8.08665 145.947 7.81235 146.073 7.50561C146.198 7.19888 146.25 6.86797 146.223 6.53863C146.252 6.21128 146.202 5.88175 146.077 5.577C145.951 5.27226 145.753 5.00094 145.5 4.78526H145.505ZM118.459 20.7172H113.957V0.272989H130.118V4.21933H118.459V20.7172ZM107.487 12.016C106.202 12.5646 104.81 12.8319 103.408 12.7992H97.5887V20.7172H93.0913V0.272989H103.418C104.82 0.239949 106.213 0.509056 107.497 1.06125C108.601 1.53532 109.543 2.31072 110.208 3.29464C110.837 4.26353 111.164 5.39088 111.148 6.53863C111.163 7.6847 110.836 8.81024 110.208 9.77756C109.541 10.7616 108.601 11.5384 107.497 12.016H107.487ZM105.757 4.78526C105.037 4.31776 104.177 4.09904 103.315 4.16375H97.5887V8.93372H103.305C104.166 9.00056 105.025 8.77969 105.742 8.30716C105.995 8.08787 106.193 7.81391 106.319 7.50696C106.445 7.20001 106.497 6.86848 106.47 6.53863C106.498 6.21135 106.448 5.88208 106.322 5.57747C106.197 5.27285 106 5.00146 105.747 4.78526H105.757ZM73.0056 0.272989H89.1516V4.16375H77.503V8.55475H88.2067V12.4455H77.503V16.8315H89.1516V20.7172H73.0056V0.272989ZM66.8457 19.3478C65.1366 20.4443 62.8234 21.0001 59.9783 21.0001C57.5588 21.0752 55.1687 20.4646 53.0955 19.2417C52.1773 18.6916 51.3893 17.9564 50.7839 17.0852C50.1786 16.214 49.7696 15.2266 49.5843 14.1888L49.4346 13.4056H53.9165L54.0868 13.825C54.4638 14.8863 55.2142 15.7818 56.2038 16.3514C57.3681 16.9412 58.6682 17.2266 59.9783 17.1801C61.6461 17.1801 62.9318 16.9123 63.8044 16.3817C64.1531 16.2092 64.4462 15.9456 64.6513 15.6201C64.8563 15.2945 64.9653 14.9198 64.9662 14.5374C64.9669 14.2411 64.8881 13.9499 64.7376 13.6927C64.5872 13.4356 64.3705 13.2216 64.1091 13.0721C63.665 12.7689 62.6994 12.4101 60.6392 12.4101H56.4362V8.59012H60.6392C61.6534 8.65645 62.6619 8.39553 63.5101 7.84734C63.7778 7.67242 63.9983 7.43682 64.1529 7.16057C64.3075 6.88433 64.3917 6.57562 64.3982 6.26072C64.4022 5.90393 64.3024 5.55338 64.1104 5.25005C63.9184 4.94672 63.6421 4.70314 63.3139 4.54777C62.1943 4.00155 60.9485 3.75074 59.6995 3.82015C58.4664 3.78738 57.2452 4.06396 56.1522 4.62357C55.7199 4.84135 55.3438 5.15235 55.0522 5.5331C54.7606 5.91386 54.5612 6.35443 54.4689 6.82159L54.3605 7.32689H49.7444L49.8993 6.54368C50.1517 5.18811 50.8031 3.93419 51.7736 2.93589C52.7504 1.93526 53.9554 1.17512 55.2899 0.717647C56.6943 0.232398 58.1741 -0.0103845 59.6633 0.000130263C61.2931 -0.027058 62.916 0.212028 64.4653 0.707541C65.7398 1.10002 66.8889 1.80849 67.8009 2.76409C68.6185 3.64603 69.0665 4.79709 69.0556 5.98786C69.0659 6.98045 68.7688 7.95282 68.2036 8.77708C67.8359 9.29265 67.38 9.74223 66.856 10.106C67.6886 10.5151 68.3852 11.1476 68.8643 11.9296C69.3434 12.7116 69.5852 13.6108 69.5616 14.5223C69.5807 15.4862 69.3396 16.438 68.8628 17.2817C68.3859 18.1254 67.6902 18.8311 66.8457 19.3276V19.3478ZM42.1903 16.3514H31.4969L29.9478 20.7172H25.2491L32.6845 0.272989H41.1318L48.5723 20.7172H43.7652L42.1903 16.3514ZM37.8169 4.10817H35.9374L32.891 12.5163H40.8375L37.8169 4.10817ZM12.8311 4.21933H10.3268L4.64708 20.7172H0L7.09971 0.272989H16.1925L23.2922 20.7172H18.4644L12.8311 4.21933Z" fill="#1E252B"/>
</svg>
