<svg width="37" height="36" viewBox="0 0 37 36" xmlns="http://www.w3.org/2000/svg">
<path d="M15.8098 2.45096C16.9102 0.221223 20.0898 0.221221 21.1902 2.45096L24.4146 8.98423C24.8516 9.86966 25.6963 10.4834 26.6734 10.6254L33.8833 11.673C36.3439 12.0306 37.3265 15.0545 35.5459 16.7901L30.3288 21.8755C29.6217 22.5648 29.2991 23.5578 29.466 24.5309L30.6976 31.7117C31.1179 34.1624 28.5456 36.0313 26.3448 34.8742L19.896 31.4839C19.0221 31.0245 17.9779 31.0245 17.104 31.4839L10.6552 34.8742C8.45437 36.0313 5.88207 34.1624 6.3024 31.7117L7.534 24.5309C7.70091 23.5578 7.37827 22.5648 6.67121 21.8755L1.45408 16.7901C-0.326472 15.0545 0.656056 12.0306 3.11672 11.673L10.3266 10.6254C11.3037 10.4834 12.1484 9.86966 12.5854 8.98423L15.8098 2.45096Z" />
</svg>
