<svg width="30" height="30" viewBox="0 0 30 30" xmlns="http://www.w3.org/2000/svg">
<path d="M29.6583 28.0089L22.3368 20.6876C24.1567 18.4992 25.2531 15.6889 25.2531 12.627C25.2531 5.66442 19.5889 0 12.6266 0C5.66427 0 0 5.66442 0 12.627C0 19.589 5.66427 25.253 12.6266 25.253C15.6885 25.253 18.4988 24.1567 20.6873 22.3369L28.0089 29.6583C28.2366 29.8862 28.5352 30 28.8336 30C29.132 30 29.4306 29.8862 29.6585 29.6583C30.114 29.2028 30.114 28.4644 29.6583 28.0089ZM2.33277 12.627C2.33277 6.95071 6.95055 2.33277 12.6266 2.33277C18.3026 2.33277 22.9202 6.95071 22.9202 12.627C22.9202 18.3027 18.3026 22.9202 12.6266 22.9202C6.95055 22.9202 2.33277 18.3027 2.33277 12.627Z" />
<path d="M18.3566 11.46H13.7929V6.89649C13.7929 6.25233 13.2708 5.7301 12.6265 5.7301C11.9822 5.7301 11.4601 6.25233 11.4601 6.89649V11.4602H6.89661C6.2523 11.4602 5.73022 11.9824 5.73022 12.6265C5.73022 13.2707 6.2523 13.7929 6.89661 13.7929H11.4601V18.3567C11.4601 19.0009 11.9822 19.5231 12.6265 19.5231C13.2708 19.5231 13.7929 19.0009 13.7929 18.3567V13.7928H18.3566C19.0009 13.7928 19.5229 13.2705 19.5229 12.6264C19.5229 11.9822 19.0009 11.46 18.3566 11.46Z" />
</svg>
