<svg width="1080" height="1080" viewBox="0 0 1080 1080" fill="none" xmlns="http://www.w3.org/2000/svg">
<path d="M540 1077.5C415.997 1077.42 295.833 1034.48 199.863 955.957C103.894 877.43 38.0187 768.142 13.3979 646.608C-11.2228 525.074 6.92422 398.766 64.765 289.079C122.606 179.393 216.584 93.072 330.78 44.7399C462.067 -10.3945 609.864 -11.1954 741.74 42.513C873.617 96.2214 978.801 200.052 1034.21 331.222C1089.63 462.392 1090.74 610.187 1037.31 742.177C983.88 874.167 880.272 979.57 749.22 1035.26C683.032 1063.27 611.872 1077.64 540 1077.5Z" fill="white"/>
<path d="M540 5C663.443 5.05529 783.072 47.7858 878.615 125.951C974.158 204.116 1039.74 312.909 1064.25 433.896C1088.76 554.882 1070.68 680.62 1013.09 789.806C955.499 898.992 861.931 984.909 748.24 1033C683.498 1060.35 614.004 1074.67 543.726 1075.16C473.447 1075.65 403.76 1062.29 338.644 1035.85C207.136 982.449 102.229 878.992 47 748.24C-8.22868 617.488 -9.25442 470.152 44.1484 338.644C97.5513 207.136 201.008 102.229 331.76 47C397.64 19.1303 468.468 4.84506 540 5ZM540 0C241.77 0 0 241.77 0 540C0 838.23 241.77 1080 540 1080C838.23 1080 1080 838.23 1080 540C1080 241.77 838.23 0 540 0Z" fill="black"/>
<path d="M540 1051.5C421.995 1051.43 307.642 1010.57 216.313 935.84C124.985 861.112 62.2955 757.11 38.8654 641.455C15.4353 525.799 32.705 405.599 87.749 301.218C142.793 196.837 232.227 114.693 340.9 68.6999C465.847 16.1663 606.535 15.3597 732.076 66.4572C857.618 117.555 957.753 216.38 1010.5 341.238C1063.25 466.096 1064.29 606.782 1013.41 732.41C962.523 858.038 863.868 958.342 739.1 1011.3C676.115 1037.96 608.396 1051.64 540 1051.5Z" fill="white"/>
<path d="M540 31C657.429 31.0713 771.223 71.733 862.105 146.097C952.988 220.461 1015.37 323.954 1038.68 439.045C1062 554.136 1044.81 673.749 990.037 777.62C935.261 881.49 846.263 963.233 738.12 1009C613.785 1061.26 473.793 1062.05 348.874 1011.2C223.955 960.35 124.318 862.009 71.8347 737.767C19.3511 613.525 18.3097 473.535 68.9392 348.526C119.569 223.517 217.732 123.705 341.88 71C404.556 44.4722 471.941 30.8673 540 31ZM540 26C256.13 26 26 256.13 26 540C26 823.87 256.13 1054 540 1054C823.87 1054 1054 823.87 1054 540C1054 256.13 823.87 26 540 26Z" fill="black"/>
<path d="M540 874C724.463 874 874 724.463 874 540C874 355.537 724.463 206 540 206C355.537 206 206 355.537 206 540C206 724.463 355.537 874 540 874Z" fill="#B9D26B" stroke="black" stroke-width="5" stroke-miterlimit="10"/>
<path fill-rule="evenodd" clip-rule="evenodd" d="M558 430.73H520.08L433.48 687.08H363L470.91 369.45H609.07L717 687.08H643.6L558 430.73Z" fill="black"/>
<path d="M285.49 812.39L256.9 839.32L225.34 805.81L253.92 778.88L240.9 765.07L170.3 831.58L183.32 845.39L211.9 818.47L243.47 851.98L214.88 878.9L227.9 892.72L298.5 826.21L285.49 812.39Z" fill="black"/>
<path d="M390.78 888.13C385.819 880.709 379.061 874.664 371.135 870.557C363.209 866.45 354.374 864.414 345.45 864.64C336.748 864.914 328.281 867.529 320.94 872.21C313.533 877.038 307.502 883.7 303.431 891.548C299.361 899.397 297.39 908.165 297.71 917C298.117 925.696 300.86 934.121 305.65 941.39C310.439 948.55 316.902 954.435 324.478 958.535C332.055 962.635 340.516 964.827 349.13 964.92C349.75 964.92 350.36 964.92 350.98 964.92C359.682 964.645 368.149 962.03 375.49 957.35C382.898 952.521 388.931 945.858 393.001 938.007C397.072 930.157 399.042 921.387 398.72 912.55C398.314 903.845 395.572 895.409 390.78 888.13ZM375.58 929C373.069 933.966 369.292 938.181 364.63 941.22C360.074 944.18 354.815 945.879 349.389 946.144C343.962 946.41 338.563 945.231 333.74 942.73C328.917 940.229 324.843 936.494 321.934 931.905C319.025 927.317 317.385 922.039 317.18 916.61C317.032 911.059 318.294 905.561 320.849 900.631C323.404 895.7 327.169 891.499 331.79 888.42C336.344 885.459 341.601 883.757 347.027 883.489C352.452 883.221 357.852 884.396 362.675 886.894C367.499 889.393 371.574 893.125 374.485 897.71C377.397 902.296 379.041 907.572 379.25 913C379.454 918.563 378.188 924.082 375.58 929Z" fill="black"/>
<path d="M509.12 917C504.299 913.583 498.718 911.393 492.86 910.62L450.59 904L435.59 999.83L454.35 1002.76L460.16 965.5L472.6 967.5L496 1009.3L519.75 1013L495 969.52C500.639 968.955 505.97 966.68 510.28 963C515.611 958.339 519.066 951.899 520 944.88C520.888 939.639 520.388 934.257 518.55 929.27C516.662 924.353 513.386 920.09 509.12 917ZM466.6 924.55L489.34 928.1C493.7 928.78 496.87 930.32 498.77 932.67C500.67 935.02 501.23 937.97 500.62 941.84C500.01 945.71 498.52 948.39 496.06 950.01C493.6 951.63 490.06 952.17 485.69 951.49L463 948L466.6 924.55Z" fill="black"/>
<path d="M595.66 989.95L592.62 968.97L636.37 962.63L633.76 944.62L590.01 950.96L586.97 929.98L634.58 923.08L631.97 905.07L565.57 914.69L579.48 1010.68L645.88 1001.07L643.27 983.05L595.66 989.95Z" fill="black"/>
<path d="M776.72 911L758.27 919.79V921.7C758.403 927.214 757.019 932.658 754.27 937.44C751.428 942.169 747.205 945.914 742.17 948.17C737.374 950.524 732.019 951.503 726.7 951C721.413 950.485 716.359 948.57 712.06 945.45C707.593 942.154 704.007 937.809 701.62 932.798C699.232 927.787 698.116 922.265 698.37 916.72C698.663 911.419 700.357 906.292 703.28 901.86C706.253 897.392 710.407 893.837 715.28 891.59C720.217 889.091 725.802 888.17 731.28 888.95C736.72 889.841 741.811 892.207 746 895.79L747.47 897.01L765.92 888.22L763.11 885.22C758.491 880.25 752.876 876.311 746.63 873.66C740.45 871.045 733.777 869.797 727.07 870C719.246 870.323 711.602 872.442 704.73 876.195C697.857 879.948 691.941 885.233 687.44 891.64C682.538 898.746 679.621 907.031 678.99 915.64C678.328 924.458 680.022 933.293 683.9 941.24C687.627 949.256 693.418 956.138 700.68 961.18C707.755 966.104 716.016 969.052 724.61 969.72C725.91 969.83 727.21 969.88 728.51 969.88C736.01 969.858 743.41 968.149 750.16 964.88C756.366 961.971 761.895 957.795 766.39 952.62C770.77 947.559 774 941.609 775.86 935.18C777.733 928.66 778.214 921.818 777.27 915.1L776.72 911Z" fill="black"/>
<path d="M810.53 802.79L797.25 815.58L833.16 915.58L848.16 901.19L840.16 879.98L872.75 848.62L893.64 857.39L909.15 842.46L810.53 802.79ZM854.78 841.05L833.33 861.7L820.27 826.59L854.78 841.05Z" fill="black"/>
<path d="M244.76 314.11L214.83 288.69L244.62 253.6L274.56 279.01L286.84 264.54L212.9 201.77L200.61 216.24L230.55 241.65L200.76 276.75L170.82 251.33L158.54 265.8L232.48 328.57L244.76 314.11Z" fill="black"/>
<path d="M311 214.47C318.497 218.903 327.051 221.231 335.76 221.21H335.89C344.79 221.104 353.52 218.758 361.275 214.389C369.029 210.02 375.558 203.768 380.26 196.21C384.803 188.781 387.262 180.267 387.38 171.56C387.405 162.715 385.141 154.015 380.807 146.305C376.474 138.594 370.218 132.137 362.65 127.56C355.153 123.137 346.605 120.809 337.9 120.82H337.77C328.868 120.925 320.136 123.27 312.38 127.639C304.623 132.008 298.093 138.261 293.39 145.82C288.846 153.244 286.39 161.757 286.28 170.46C286.253 179.304 288.515 188.004 292.847 195.715C297.179 203.425 303.433 209.883 311 214.46V214.47ZM336.5 139.66H337.09C342.476 139.763 347.74 141.284 352.35 144.07C357.09 146.983 361.012 151.051 363.75 155.895C366.487 160.738 367.95 166.197 368 171.76C367.992 177.205 366.538 182.55 363.785 187.249C361.033 191.947 357.081 195.83 352.336 198.499C347.59 201.169 342.22 202.529 336.775 202.441C331.331 202.354 326.007 200.821 321.35 198C316.627 195.077 312.722 191.003 310.001 186.161C307.28 181.318 305.831 175.865 305.79 170.31C305.894 162.201 309.172 154.456 314.921 148.735C320.669 143.015 328.431 139.775 336.54 139.71L336.5 139.66Z" fill="black"/>
<path d="M501.53 118.35C505.073 112.195 506.246 104.959 504.83 97.9999C503.975 92.7568 501.754 87.8314 498.39 83.7199C495.004 79.6816 490.514 76.7175 485.47 75.1899C479.79 73.5395 473.794 73.2992 468 74.4899L425.9 81.9999L442.9 177.5L461.58 174.16L455 137L467.4 134.79L503.07 166.73L526.73 162.52L489.2 129.47C494.346 127.105 498.648 123.226 501.53 118.35ZM483.86 110.69C482.01 113.08 478.86 114.69 474.53 115.46L451.87 119.46L447.71 96.1599L470.37 92.1599C474.71 91.3799 478.21 91.7999 480.77 93.4099C483.33 95.0199 484.82 97.6199 485.51 101.48C486.2 105.34 485.66 108.35 483.86 110.69Z" fill="black"/>
<path d="M627.63 154.63L579.89 148.66L582.53 127.62L626.4 133.11L628.66 115.06L584.79 109.56L587.42 88.5201L635.16 94.5001L637.43 76.4501L570.86 68.1101L558.8 164.35L625.37 172.69L627.63 154.63Z" fill="black"/>
<path d="M702.31 202.32C708.509 205.241 715.249 206.835 722.1 207H723.1C729.443 207.008 735.72 205.711 741.54 203.19C747.786 200.51 753.396 196.54 758 191.54L760.78 188.54L742.26 179.9L740.8 181.13C736.645 184.765 731.57 187.187 726.13 188.13C720.667 188.953 715.082 188.081 710.13 185.63C705.247 183.419 701.073 179.899 698.07 175.46C695.119 171.05 693.394 165.936 693.07 160.64C692.766 155.096 693.834 149.562 696.18 144.53C698.526 139.497 702.078 135.121 706.52 131.79C710.796 128.642 715.831 126.685 721.11 126.12C726.44 125.573 731.817 126.507 736.65 128.82C741.707 131.039 745.964 134.752 748.85 139.46C751.625 144.22 753.039 149.651 752.94 155.16V157L771.46 165.64L771.98 161.58C772.868 154.853 772.33 148.015 770.4 141.51C768.487 135.098 765.208 129.175 760.79 124.15C755.558 118.323 749.057 113.777 741.788 110.864C734.519 107.951 726.678 106.749 718.87 107.35C710.274 108.095 702.033 111.122 695 116.12C687.835 121.28 682.114 128.192 678.383 136.195C674.652 144.198 673.036 153.024 673.69 161.83C674.394 170.42 677.377 178.667 682.33 185.72C687.392 192.935 694.29 198.666 702.31 202.32Z" fill="black"/>
<path d="M832.29 269.77L824.36 291L839.9 305.91L875.64 205.78L862.33 193L763.79 232.89L778.79 247.26L799.67 238.45L832.29 269.77ZM817.69 230.92L852.25 216.46L839.18 251.53L817.69 230.92Z" fill="black"/>
</svg>
