<svg width="1080" height="1080" viewBox="0 0 1080 1080" fill="none" xmlns="http://www.w3.org/2000/svg">
<path d="M540 1077.5C415.997 1077.42 295.833 1034.48 199.864 955.957C103.894 877.43 38.019 768.142 13.3982 646.608C-11.2226 525.074 6.92447 398.766 64.7653 289.079C122.606 179.393 216.584 93.072 330.78 44.7399C462.067 -10.3945 609.864 -11.1954 741.741 42.513C873.617 96.2214 978.802 200.052 1034.21 331.222C1089.63 462.392 1090.74 610.187 1037.31 742.177C983.881 874.167 880.273 979.57 749.22 1035.26C683.032 1063.27 611.872 1077.64 540 1077.5Z" fill="white"/>
<path d="M540 5C663.443 5.05529 783.072 47.7858 878.615 125.951C974.158 204.116 1039.74 312.909 1064.25 433.896C1088.76 554.882 1070.68 680.62 1013.09 789.806C955.499 898.992 861.931 984.909 748.24 1033C683.498 1060.35 614.004 1074.67 543.726 1075.16C473.447 1075.65 403.76 1062.29 338.644 1035.85C207.136 982.449 102.229 878.992 47 748.24C-8.22868 617.488 -9.25442 470.152 44.1484 338.644C97.5513 207.136 201.008 102.229 331.76 47C397.64 19.1303 468.468 4.84506 540 5ZM540 0C241.77 0 0 241.77 0 540C0 838.23 241.77 1080 540 1080C838.23 1080 1080 838.23 1080 540C1080 241.77 838.23 0 540 0Z" fill="black"/>
<path d="M540 1051.5C421.995 1051.43 307.642 1010.57 216.313 935.84C124.985 861.112 62.2953 757.11 38.8653 641.455C15.4352 525.799 32.7049 405.599 87.7488 301.218C142.793 196.837 232.227 114.693 340.9 68.6999C465.847 16.1663 606.535 15.3597 732.076 66.4572C857.618 117.555 957.753 216.38 1010.5 341.238C1063.25 466.096 1064.29 606.782 1013.41 732.41C962.523 858.038 863.868 958.342 739.1 1011.3C676.115 1037.96 608.396 1051.64 540 1051.5Z" fill="white"/>
<path d="M540 31C657.429 31.0713 771.223 71.733 862.105 146.097C952.988 220.461 1015.37 323.954 1038.68 439.045C1062 554.136 1044.81 673.749 990.037 777.62C935.261 881.49 846.263 963.233 738.12 1009C613.785 1061.26 473.793 1062.05 348.874 1011.2C223.955 960.35 124.318 862.009 71.8347 737.767C19.3511 613.525 18.3097 473.535 68.9392 348.526C119.569 223.517 217.732 123.705 341.88 71C404.556 44.4722 471.941 30.8673 540 31ZM540 26C256.13 26 26 256.13 26 540C26 823.87 256.13 1054 540 1054C823.87 1054 1054 823.87 1054 540C1054 256.13 823.87 26 540 26Z" fill="black"/>
<path d="M540 874C724.463 874 874 724.463 874 540C874 355.537 724.463 206 540 206C355.537 206 206 355.537 206 540C206 724.463 355.537 874 540 874Z" fill="#7DA8DA" stroke="black" stroke-width="5" stroke-miterlimit="10"/>
<path fill-rule="evenodd" clip-rule="evenodd" d="M558 430.73H520.08L433.48 687.08H363L470.91 369.45H609.07L717 687.08H643.6L558 430.73Z" fill="black"/>
<path d="M159.06 634.87C160.476 640.143 160.26 645.722 158.44 650.87C156.496 656 153.178 660.498 148.85 663.87L147.35 665.07L152.24 684.85L155.73 682.7C161.489 679.203 166.45 674.536 170.29 669C174.064 663.517 176.602 657.28 177.73 650.72C178.981 643.033 178.444 635.161 176.162 627.714C173.88 620.268 169.913 613.447 164.57 607.78C158.64 601.596 151.166 597.108 142.92 594.78C134.454 592.447 125.531 592.326 117.005 594.427C108.478 596.528 100.633 600.781 94.2202 606.78C88.0095 612.688 83.4844 620.144 81.1102 628.38C79.0241 635.884 78.6921 643.766 80.14 651.419C81.5879 659.071 84.7769 666.287 89.4602 672.51C93.5147 677.789 98.6666 682.126 104.56 685.22C110.538 688.357 117.112 690.194 123.85 690.61L127.95 690.89L123.06 671.11L121.18 670.75C115.792 669.785 110.771 667.364 106.66 663.75C102.639 660.033 99.8478 655.176 98.6602 649.83C97.3202 644.666 97.4379 639.231 99.0002 634.13C100.553 629.094 103.417 624.563 107.3 621C111.4 617.31 116.346 614.687 121.701 613.365C127.056 612.043 132.654 612.062 138 613.42C143.101 614.762 147.754 617.437 151.48 621.17C155.222 624.95 157.846 629.692 159.06 634.87Z" fill="black"/>
<path d="M248.65 777.24L187.83 785.61L215.38 729.67L202.38 711.08L165.62 788.09L140.67 791.17L153.09 808.93L260.98 794.87L248.65 777.24Z" fill="black"/>
<path d="M334.12 852.37L298.25 827.84L243.8 907.47L279.8 932.07C284.6 935.529 290.152 937.802 296 938.7C297.326 938.871 298.662 938.957 300 938.96C303.819 938.985 307.598 938.173 311.07 936.58C315.721 934.376 319.68 930.942 322.52 926.65C325.269 922.758 326.864 918.169 327.12 913.41C327.253 910.147 326.761 906.888 325.67 903.81C328.644 903.605 331.55 902.827 334.23 901.52C338.279 899.48 341.726 896.42 344.23 892.64C347.067 888.597 348.751 883.857 349.1 878.93C349.377 873.934 348.214 868.964 345.75 864.61C342.903 859.662 338.916 855.466 334.12 852.37ZM323.49 866.77C332.74 873.09 330.81 878.45 328.1 882.42C325.95 885.57 323.58 887.3 320.85 887.72C318.12 888.14 314.85 887.11 311.27 884.65L291.55 871.17L303.78 853.29L323.49 866.77ZM306.64 915.18C304.5 918.3 302.12 919.98 299.36 920.31C296.6 920.64 293.11 919.52 289.36 916.94L269.54 903.38L281.84 885.38L301.64 899C305.43 901.6 307.76 904.3 308.54 907C309.28 909.55 308.66 912.23 306.64 915.18Z" fill="black"/>
<path d="M389.31 986.08L453.93 1002.8L458.47 985.23L412.18 973.25L417.44 952.91L459.98 963.91L464.52 946.34L421.98 935.34L427.24 914.99L473.54 926.97L478.08 909.4L413.47 892.69L389.31 986.08Z" fill="black"/>
<path d="M600.05 908.17L604.16 946.98L558.72 951.8L554.6 912.98L535.78 914.98L545.95 1010.91L564.77 1008.92L560.66 970.1L606.1 965.29L610.21 1004.1L629.03 1002.11L618.87 906.17L600.05 908.17Z" fill="black"/>
<path d="M733.6 857.91L723.63 938.43L692.37 879.95L675.68 888.88L721.16 973.95L737.72 965.1L748.24 882.04L780.43 942.27L797.12 933.34L751.64 848.27L733.6 857.91Z" fill="black"/>
<path d="M870.87 815.22C874.823 810.873 877.658 805.628 879.13 799.94C880.399 794.852 880.16 789.504 878.44 784.55C876.573 779.612 873.507 775.216 869.518 771.758C865.529 768.3 860.743 765.888 855.59 764.74C850.444 763.738 845.117 764.255 840.26 766.23C834.821 768.486 830.016 772.035 826.26 776.57L798.38 808.72L871.26 871.93L883.66 857.63L855.35 833.07L870.87 815.22ZM824.53 806.31L839.76 788.76C842.62 785.45 845.5 783.6 848.29 783.26C851.08 782.92 853.76 784 856.69 786.55C859.62 789.1 861.11 791.69 861.19 794.46C861.27 797.23 859.86 800.41 857 803.71L841.77 821.26L824.53 806.31Z" fill="black"/>
<path d="M907.555 612.317L901.439 630.221L992.73 661.406L998.846 643.502L907.555 612.317Z" fill="black"/>
<path d="M975.2 668.09C971.613 664.217 967.119 661.297 962.123 659.592C957.128 657.886 951.786 657.449 946.58 658.32C941.435 659.322 936.695 661.804 932.94 665.46C928.756 669.593 925.649 674.688 923.89 680.3L916.25 702.65L880.78 690.54L874.67 708.45L966 739.63L979.75 699.36C981.786 693.842 982.445 687.911 981.67 682.08C980.918 676.887 978.67 672.026 975.2 668.09ZM933.31 708.48L940.81 686.48C942.23 682.33 944.2 679.54 946.66 678.17C949.12 676.8 952 676.81 955.66 678.06C959.32 679.31 961.66 681.17 962.8 683.71C963.94 686.25 963.8 689.71 962.39 693.85L954.88 715.85L933.31 708.48Z" fill="black"/>
<path d="M247.43 309C251.089 304.396 253.571 298.969 254.66 293.19C255.584 288.031 254.986 282.715 252.94 277.89C250.749 273.086 247.397 268.903 243.186 265.717C238.975 262.531 234.038 260.443 228.82 259.64C223.62 258.985 218.342 259.857 213.63 262.15C208.368 264.768 203.824 268.63 200.39 273.4L186.13 292.24L170.71 280.58L201.13 240.38L186.66 229.38L144.82 284.67L221.75 342.88L247.43 309ZM218.7 316.89L200.5 303.12L214.5 284.59C217.14 281.09 219.89 279.05 222.65 278.53C225.41 278.01 228.16 278.91 231.25 281.25C234.34 283.59 236 286.09 236.25 288.85C236.5 291.61 235.32 294.85 232.68 298.36L218.7 316.89Z" fill="black"/>
<path d="M311.71 129.9L306.72 210.88L271.92 154.45L255.81 164.38L306.45 246.49L322.42 236.64L327.81 153.09L363.65 211.22L379.76 201.28L329.12 119.17L311.71 129.9Z" fill="black"/>
<path d="M488.76 120.54C490.697 118.305 492.218 115.742 493.25 112.97C494.798 108.681 495.144 104.051 494.25 99.58C493.31 94.2153 490.561 89.3344 486.46 85.75C482.06 82.0592 476.747 79.6206 471.08 78.69C464.389 77.5516 457.545 77.6771 450.9 79.06C444.792 80.1712 438.96 82.4641 433.73 85.81C428.613 89.0665 424.376 93.5308 421.39 98.81C418.325 104.342 416.808 110.598 417 116.92L417.06 120.48L436.06 116.89V114.4C435.974 112.233 436.363 110.073 437.201 108.072C438.039 106.072 439.305 104.279 440.91 102.82C444.676 99.4851 449.313 97.2897 454.28 96.49C460.51 95.31 465.56 95.49 469.28 97.09C470.842 97.6772 472.218 98.6725 473.265 99.9723C474.311 101.272 474.99 102.829 475.23 104.48C475.505 105.932 475.45 107.428 475.069 108.856C474.689 110.284 473.992 111.608 473.03 112.73C470.92 115.41 467.32 117.25 462.33 118.2L445.15 121.43L448.44 138.89L465.62 135.65C472.1 134.43 477.04 134.56 479.93 136.05C481.191 136.634 482.29 137.518 483.131 138.625C483.971 139.732 484.527 141.028 484.75 142.4C485.111 144.137 485.019 145.938 484.483 147.63C483.947 149.322 482.985 150.847 481.69 152.06C478.69 155.13 473.81 157.33 467.18 158.58C461.09 159.73 455.82 159.42 451.49 157.68C447.16 155.94 443.65 152.57 440.76 147.58L439.69 145.74L421.17 149.23L422.39 152.56C425.91 162.15 432.14 169.09 440.93 173.2C446.814 175.905 453.225 177.272 459.7 177.2C463.322 177.186 466.934 176.834 470.49 176.15C482.1 173.96 491.02 169.58 497.01 163.15C503.24 156.44 505.51 148.3 503.75 138.97C502.07 129.94 497 123.76 488.76 120.54Z" fill="black"/>
<path d="M635.84 121.89L590.85 113.84L597.73 75.4201L579.1 72.0801L562.1 167.04L580.73 170.38L587.61 131.96L632.59 140.01L625.71 178.43L644.34 181.76L661.34 86.8001L642.71 83.4701L635.84 121.89Z" fill="black"/>
<path d="M765.95 222.6L724.8 198.24L735.5 180.16L773.32 202.54L782.56 186.93L744.74 164.54L755.45 146.46L796.6 170.82L805.84 155.2L748.41 121.21L699.27 204.22L756.71 238.22L765.95 222.6Z" fill="black"/>
<path d="M824.38 306.26C828.68 311.558 834.042 315.898 840.12 319C846.055 322.005 852.572 323.687 859.22 323.93C859.82 323.93 860.42 323.93 861.01 323.93C867.175 323.926 873.281 322.742 879 320.44L882.81 318.92L869.81 303.19L867.95 303.68C862.682 305.156 857.109 305.156 851.84 303.68C846.598 302.076 841.971 298.908 838.58 294.6C835.152 290.531 832.92 285.591 832.13 280.33C831.362 275.096 832.008 269.751 834 264.85C836.1 259.754 839.425 255.255 843.679 251.751C847.934 248.246 852.986 245.845 858.39 244.76C863.568 243.76 868.919 244.16 873.89 245.92C878.89 247.715 883.295 250.857 886.62 255C890.194 259.148 892.42 264.286 893 269.73C893.462 275.181 892.425 280.656 890 285.56L889.17 287.28L902.17 303.01L904.4 299.55C908.077 293.892 910.524 287.524 911.58 280.86C912.613 274.285 912.207 267.563 910.39 261.16C908.52 254.605 905.297 248.514 900.93 243.28C895.405 236.447 888.155 231.213 879.93 228.12C871.903 225.109 863.219 224.288 854.77 225.74C846.12 227.299 838.014 231.051 831.226 236.635C824.439 242.22 819.196 249.452 816 257.64C812.955 265.655 812.1 274.335 813.52 282.79C814.984 291.441 818.734 299.544 824.38 306.26Z" fill="black"/>
</svg>
