<svg width="1080" height="1080" viewBox="0 0 1080 1080" fill="none" xmlns="http://www.w3.org/2000/svg">
<path d="M540 1077.5C415.997 1077.42 295.833 1034.48 199.863 955.957C103.894 877.43 38.0187 768.142 13.3979 646.608C-11.2228 525.074 6.92422 398.766 64.765 289.079C122.606 179.393 216.584 93.072 330.78 44.7399C462.067 -10.3945 609.864 -11.1954 741.74 42.513C873.617 96.2214 978.801 200.052 1034.21 331.222C1089.63 462.392 1090.74 610.187 1037.31 742.177C983.88 874.167 880.272 979.57 749.22 1035.26C683.032 1063.27 611.872 1077.64 540 1077.5Z" fill="white"/>
<path d="M540 5C663.443 5.05529 783.072 47.7858 878.615 125.951C974.158 204.116 1039.74 312.909 1064.25 433.896C1088.76 554.882 1070.68 680.62 1013.09 789.806C955.499 898.992 861.931 984.909 748.24 1033C683.498 1060.35 614.004 1074.67 543.726 1075.16C473.447 1075.65 403.76 1062.29 338.644 1035.85C207.136 982.449 102.229 878.992 47 748.24C-8.22868 617.488 -9.25442 470.152 44.1484 338.644C97.5513 207.136 201.008 102.229 331.76 47C397.64 19.1303 468.468 4.84506 540 5ZM540 0C241.77 0 0 241.77 0 540C0 838.23 241.77 1080 540 1080C838.23 1080 1080 838.23 1080 540C1080 241.77 838.23 0 540 0Z" fill="black"/>
<path d="M540 1051.5C421.995 1051.43 307.642 1010.57 216.313 935.84C124.985 861.112 62.2955 757.11 38.8654 641.455C15.4353 525.799 32.705 405.599 87.749 301.218C142.793 196.837 232.227 114.693 340.9 68.6999C465.847 16.1663 606.535 15.3597 732.076 66.4572C857.618 117.555 957.753 216.38 1010.5 341.238C1063.25 466.096 1064.29 606.782 1013.41 732.41C962.523 858.038 863.868 958.342 739.1 1011.3C676.115 1037.96 608.396 1051.64 540 1051.5Z" fill="white"/>
<path d="M540 31C657.429 31.0713 771.223 71.733 862.105 146.097C952.988 220.461 1015.37 323.954 1038.68 439.045C1062 554.136 1044.81 673.749 990.037 777.62C935.261 881.49 846.263 963.233 738.12 1009C613.785 1061.26 473.793 1062.05 348.874 1011.2C223.955 960.35 124.318 862.009 71.8347 737.767C19.3511 613.525 18.3097 473.535 68.9392 348.526C119.569 223.517 217.732 123.705 341.88 71C404.556 44.4722 471.941 30.8673 540 31ZM540 26C256.13 26 26 256.13 26 540C26 823.87 256.13 1054 540 1054C823.87 1054 1054 823.87 1054 540C1054 256.13 823.87 26 540 26Z" fill="black"/>
<path d="M540 874C724.463 874 874 724.463 874 540C874 355.537 724.463 206 540 206C355.537 206 206 355.537 206 540C206 724.463 355.537 874 540 874Z" fill="#C6AFD5" stroke="black" stroke-width="5" stroke-miterlimit="10"/>
<path fill-rule="evenodd" clip-rule="evenodd" d="M558 430.73H520.08L433.48 687.08H363L470.91 369.45H609.07L717 687.08H643.6L558 430.73Z" fill="black"/>
<path d="M181.74 738.22C185.505 733.587 187.816 727.944 188.38 722C188.978 715.327 187.948 708.608 185.38 702.42L180.69 690.36L195.78 684.49L188.91 666.82L173.81 672.7L169.11 660.64C166.83 654.341 163.055 648.689 158.11 644.17C153.672 640.179 148.155 637.587 142.25 636.72C136.333 636.015 130.333 636.777 124.78 638.939C119.227 641.102 114.292 644.598 110.41 649.12C106.64 653.747 104.325 659.388 103.76 665.33C103.161 672.003 104.191 678.722 106.76 684.91L111.44 697L96.35 702.88L103.23 720.54L118.32 714.67L123 726.7C125.282 732.996 129.056 738.644 134 743.16C138.435 747.155 143.954 749.747 149.86 750.61C151.354 750.821 152.861 750.928 154.37 750.93C158.824 750.907 163.235 750.046 167.37 748.39C172.96 746.301 177.911 742.797 181.74 738.22ZM156.61 679.39L128.61 690.28L123.92 678.22C121.92 673.02 121.58 668.59 123 665.06C124.42 661.53 127.3 658.98 131.85 657.21C133.935 656.345 136.163 655.877 138.42 655.83C140.246 655.816 142.051 656.216 143.7 657C147.13 658.65 149.9 662.12 151.92 667.32L156.61 679.39ZM169.1 722.27C167.69 725.79 164.8 728.35 160.25 730.12C155.7 731.89 151.83 731.96 148.42 730.32C145.01 728.68 142.23 725.21 140.2 720.01L135.51 708L163.51 697.1L168.21 709.16C170.21 714.31 170.52 718.74 169.1 722.27Z" fill="#010101"/>
<path d="M266.14 793.74C260.156 787.137 252.547 782.217 244.07 779.47C235.818 776.773 226.991 776.351 218.52 778.25C209.932 780.259 202.01 784.457 195.526 790.437C189.042 796.416 184.217 803.972 181.52 812.37C178.952 820.664 178.665 829.497 180.69 837.94C182.823 846.579 187.105 854.538 193.139 861.079C199.172 867.619 206.761 872.528 215.2 875.35C227.856 879.211 241.525 877.922 253.236 871.761C264.946 865.601 273.752 855.067 277.74 842.45C280.311 834.157 280.601 825.324 278.58 816.88C276.522 808.214 272.234 800.237 266.14 793.74ZM259.32 836.25C257.574 841.499 254.525 846.22 250.459 849.971C246.393 853.723 241.443 856.382 236.07 857.7C230.844 858.924 225.387 858.748 220.25 857.19C216.366 856.012 212.756 854.073 209.628 851.486C206.501 848.899 203.92 845.716 202.036 842.122C200.151 838.527 199 834.594 198.651 830.55C198.301 826.507 198.76 822.434 200 818.57C201.746 813.321 204.795 808.6 208.861 804.849C212.927 801.097 217.877 798.438 223.25 797.12C228.52 795.893 234.021 796.084 239.192 797.675C244.364 799.266 249.022 802.199 252.691 806.176C256.36 810.153 258.909 815.032 260.079 820.315C261.249 825.597 260.997 831.096 259.35 836.25H259.32Z" fill="#010101"/>
<path d="M313.36 864.15L341.69 879.86L303.74 948.32L320.32 957.51L358.28 889.05L386.61 904.76L395.56 888.63L322.3 848.02L313.36 864.15Z" fill="#010101"/>
<path d="M495 918.45C488.132 912.8 479.945 908.979 471.203 907.342C462.461 905.705 453.447 906.307 445 909.09C436.771 911.86 429.443 916.8 423.79 923.39C418.109 930.134 414.271 938.234 412.649 946.901C411.028 955.569 411.68 964.509 414.54 972.85C417.433 981.039 422.484 988.294 429.16 993.85C435.98 999.574 444.178 1003.42 452.94 1005C456.238 1005.62 459.585 1005.93 462.94 1005.94C468.466 1005.95 473.954 1005.04 479.18 1003.24C487.411 1000.47 494.741 995.528 500.4 988.94C506.077 982.194 509.912 974.093 511.531 965.426C513.15 956.759 512.499 947.821 509.64 939.48C506.745 931.279 501.686 924.012 495 918.45ZM467.79 925.45C473.112 926.395 478.084 928.749 482.188 932.266C486.293 935.783 489.381 940.336 491.13 945.45C492.868 950.701 493.247 956.307 492.231 961.744C491.215 967.181 488.837 972.271 485.32 976.54C481.834 980.675 477.314 983.812 472.22 985.632C467.127 987.452 461.642 987.889 456.325 986.899C451.008 985.909 446.048 983.527 441.95 979.997C437.853 976.466 434.765 971.913 433 966.8C431.262 961.549 430.883 955.943 431.899 950.506C432.915 945.069 435.293 939.979 438.81 935.71C442.266 931.596 446.752 928.473 451.81 926.66C455.042 925.491 458.453 924.896 461.89 924.9C463.873 924.906 465.851 925.094 467.8 925.46L467.79 925.45Z" fill="#010101"/>
<path d="M632 952.75C634.031 950.586 635.654 948.072 636.79 945.33C638.498 941.107 639.02 936.498 638.3 932C637.566 926.573 634.988 921.563 631 917.81C626.736 913.937 621.505 911.288 615.86 910.14C609.199 908.755 602.339 908.623 595.63 909.75C589.469 910.635 583.539 912.711 578.17 915.86C572.91 918.94 568.493 923.272 565.31 928.47C562.045 933.881 560.298 940.071 560.25 946.39L560.17 949.95L579.35 947.08L579.44 944.59C579.44 942.415 579.915 940.266 580.832 938.293C581.749 936.32 583.086 934.572 584.75 933.17C588.65 929.968 593.381 927.943 598.39 927.33C604.68 926.39 609.73 926.78 613.39 928.51C614.936 929.154 616.28 930.203 617.281 931.545C618.282 932.888 618.904 934.475 619.08 936.14C619.3 937.608 619.186 939.106 618.748 940.523C618.31 941.941 617.559 943.242 616.55 944.33C614.34 946.94 610.66 948.65 605.62 949.4L588.32 952L590.95 969.6L608.27 967C614.81 966 619.77 966.35 622.6 968C623.843 968.633 624.911 969.561 625.711 970.703C626.512 971.845 627.019 973.166 627.19 974.55C627.489 976.304 627.331 978.106 626.73 979.78C626.129 981.455 625.106 982.946 623.76 984.11C620.63 987.11 615.66 989.11 608.96 990.11C602.82 991.03 597.54 990.52 593.28 988.61C589.02 986.7 585.61 983.2 582.9 978.08L581.9 976.2L563.22 979L564.31 982.37C567.47 992.1 573.45 999.3 582.1 1003.75C588.503 1006.98 595.59 1008.62 602.76 1008.52C605.723 1008.51 608.681 1008.28 611.61 1007.84C623.31 1006.09 632.42 1002.03 638.67 995.84C645.16 989.36 647.75 981.29 646.34 971.84C645 962.67 640.17 956.29 632 952.75Z" fill="#010101"/>
<path d="M764.07 872.24C756.72 867.62 748.259 865.07 739.58 864.86C730.686 864.702 721.896 866.795 714.029 870.946C706.161 875.097 699.471 881.17 694.58 888.6C689.844 895.888 687.156 904.316 686.8 913C686.539 921.813 688.564 930.544 692.677 938.344C696.789 946.143 702.85 952.746 710.27 957.51C717.621 962.128 726.081 964.677 734.76 964.89C735.26 964.89 735.76 964.89 736.26 964.89C744.906 964.796 753.398 962.58 760.987 958.437C768.577 954.295 775.034 948.351 779.79 941.13C784.524 933.851 787.202 925.427 787.54 916.75C787.803 907.936 785.78 899.204 781.667 891.404C777.554 883.604 771.492 877.002 764.07 872.24ZM736.07 946.07C730.707 945.834 725.503 944.177 720.99 941.27C716.365 938.231 712.585 934.068 710.006 929.171C707.426 924.274 706.131 918.804 706.24 913.27C706.561 905.339 709.92 897.835 715.622 892.313C721.325 886.792 728.933 883.675 736.87 883.61H738.26C743.618 883.854 748.817 885.51 753.33 888.41C757.959 891.446 761.742 895.608 764.324 900.505C766.905 905.402 768.201 910.875 768.09 916.41C767.762 924.578 764.21 932.283 758.212 937.837C752.214 943.39 744.259 946.34 736.09 946.04L736.07 946.07Z" fill="#010101"/>
<path d="M834.27 773.82L863.36 800L832.69 834.07L803.6 807.89L790.91 821.98L862.8 886.68L875.49 872.59L846.4 846.41L877.06 812.34L906.15 838.52L918.84 824.43L846.95 759.72L834.27 773.82Z" fill="#010101"/>
<path d="M974.36 684.69C970.9 680.679 966.495 677.593 961.544 675.711C956.593 673.829 951.251 673.21 946 673.91C940.811 674.734 935.974 677.052 932.08 680.58C927.757 684.587 924.469 689.584 922.5 695.14L914.07 717.29L879 703.92L872.26 721.64L962.63 756L977.8 716.13C980.027 710.673 980.892 704.756 980.32 698.89C979.754 693.678 977.683 688.744 974.36 684.69ZM930.98 723.69L939.27 701.9C940.83 697.8 942.9 695.06 945.41 693.77C947.92 692.48 950.82 692.59 954.46 693.98C958.1 695.37 960.4 697.3 961.46 699.89C962.52 702.48 962.26 705.95 960.7 710.05L952.41 731.83L930.98 723.69Z" fill="#010101"/>
<path d="M908.45 626.367L901.708 644.088L992.106 678.481L998.848 660.761L908.45 626.367Z" fill="#010101"/>
<path d="M146 451.13C149.988 453.106 153.689 455.616 157 458.59L153.63 469L189.63 480.7L195.32 463.16L176.83 457.16L196.83 395.56L215.32 401.56L221.02 384.02L185.02 372.32L181.82 382.18L107.37 358L84.22 429.29L118.14 440.29C130.74 444.39 140.1 448 146 451.13ZM107.61 417.07L119.08 381.73L176 400.21L163.12 439.87C154.26 433.82 140.96 427.87 123.5 422.23L107.61 417.07Z" fill="#010101"/>
<path d="M257.32 297.3L242.47 286.81L214.79 325.96L197.57 313.78L223.01 277.81L208.16 267.31L182.72 303.29L165.51 291.11L193.19 251.96L178.35 241.46L139.72 296.09L218.69 351.94L257.32 297.3Z" fill="#010101"/>
<path d="M278.32 221.22L330.68 232.97L350.19 217.72L281.09 202.48L290.53 141.59L271.06 156.81L261.87 216.29L236.49 183.86L221.56 195.55L281.16 271.72L296.09 260.04L276.2 234.62L278.32 221.22Z" fill="#010101"/>
<path d="M430.51 179.28C436.091 172.62 439.771 164.577 441.16 156C442.486 147.288 441.536 138.381 438.401 130.145C435.266 121.91 430.054 114.625 423.27 109C416.533 103.526 408.447 99.9684 399.86 98.7001C391.046 97.4634 382.063 98.4742 373.745 101.639C365.427 104.803 358.043 110.018 352.28 116.8C346.7 123.453 343.021 131.489 341.63 140.06C340.304 148.772 341.254 157.679 344.389 165.915C347.524 174.151 352.736 181.435 359.52 187.06C366.254 192.538 374.342 196.096 382.93 197.36C385.422 197.739 387.939 197.929 390.46 197.93C396.818 197.907 403.119 196.72 409.05 194.43C417.402 191.338 424.801 186.116 430.51 179.28ZM421.9 153.36C421.093 158.708 418.867 163.742 415.453 167.936C412.039 172.131 407.562 175.334 402.49 177.21C397.454 179.184 391.979 179.767 386.64 178.9C381.301 178.033 376.293 175.746 372.14 172.28C367.916 168.708 364.668 164.122 362.701 158.952C360.733 153.782 360.11 148.197 360.89 142.72C361.69 137.369 363.914 132.33 367.329 128.133C370.743 123.935 375.223 120.733 380.3 118.86C383.809 117.5 387.537 116.795 391.3 116.78C392.956 116.781 394.608 116.921 396.24 117.2C401.533 118.084 406.495 120.358 410.62 123.79C414.84 127.367 418.085 131.956 420.053 137.126C422.02 142.297 422.645 147.882 421.87 153.36H421.9Z" fill="#010101"/>
<path d="M555.29 85.4601C552.45 81.0386 548.385 77.5396 543.59 75.3901C538.196 73.0097 532.302 71.98 526.42 72.3901L483.81 74.4801L488.53 171.08L507.47 170.16L505.64 132.62L529.3 131.46C535.193 131.311 540.962 129.732 546.11 126.86C550.671 124.249 554.375 120.368 556.77 115.69C559.05 110.915 560.108 105.649 559.85 100.363C559.592 95.0783 558.025 89.94 555.29 85.4101V85.4601ZM504.75 114.64L503.64 91.7601L526.92 90.6201C531.3 90.4101 534.64 91.2101 536.83 93.0001C539.02 94.7901 540.08 97.4801 540.27 101.37C540.46 105.26 539.6 108.14 537.65 110.12C535.7 112.1 532.41 113.28 528.04 113.5L504.75 114.64Z" fill="#010101"/>
<path d="M636.22 82.24L572.22 166.74L592.42 171.4L605.8 153.2L649.69 163.32L653.69 185.54L674.69 190.37L654.14 86.37L636.22 82.24ZM646.22 144.14L617.37 137.49L639.52 107.49L646.22 144.14Z" fill="#010101"/>
<path d="M821.33 163.77L805.2 153.8L764.04 220.39L725.05 196.28L766.21 129.7L750.08 119.73L699.23 202L763.61 241.8L753.39 258.33L769.07 268.03L788.99 235.81L780.17 230.35L821.33 163.77Z" fill="#010101"/>
<path d="M813.23 287.37L897.02 281.93L843.85 325.1L855.79 339.82L930.89 278.86L917.97 262.95L836.78 268.45L888.42 226.54L876.47 211.82L801.37 272.77L813.23 287.37Z" fill="#010101"/>
<path d="M881.41 391.42L962.36 413.76L897.96 437.1L904.42 454.93L995.36 421.97L988.37 402.7L909.87 381.27L972.39 358.61L965.94 340.79L875 373.74L881.41 391.42Z" fill="#010101"/>
</svg>
