<svg width="1080" height="1080" viewBox="0 0 1080 1080" fill="none" xmlns="http://www.w3.org/2000/svg">
<path d="M540 1077.5C415.997 1077.42 295.833 1034.48 199.863 955.957C103.894 877.43 38.0187 768.142 13.3979 646.608C-11.2228 525.074 6.92422 398.766 64.765 289.079C122.606 179.393 216.584 93.072 330.78 44.7399C462.067 -10.3945 609.864 -11.1954 741.74 42.513C873.617 96.2214 978.801 200.052 1034.21 331.222C1089.63 462.392 1090.74 610.187 1037.31 742.177C983.88 874.167 880.272 979.57 749.22 1035.26C683.032 1063.27 611.872 1077.64 540 1077.5Z" fill="white"/>
<path d="M540 5C663.443 5.05529 783.072 47.7858 878.615 125.951C974.158 204.116 1039.74 312.909 1064.25 433.896C1088.76 554.882 1070.68 680.62 1013.09 789.806C955.499 898.992 861.931 984.909 748.24 1033C683.498 1060.35 614.004 1074.67 543.726 1075.16C473.447 1075.65 403.76 1062.29 338.644 1035.85C207.136 982.449 102.229 878.992 47 748.24C-8.22868 617.488 -9.25442 470.152 44.1484 338.644C97.5513 207.136 201.008 102.229 331.76 47C397.64 19.1303 468.468 4.84506 540 5ZM540 0C241.77 0 0 241.77 0 540C0 838.23 241.77 1080 540 1080C838.23 1080 1080 838.23 1080 540C1080 241.77 838.23 0 540 0Z" fill="black"/>
<path d="M540 1051.5C421.995 1051.43 307.642 1010.57 216.313 935.84C124.985 861.112 62.2956 757.11 38.8655 641.455C15.4355 525.799 32.7052 405.599 87.7491 301.218C142.793 196.837 232.227 114.693 340.9 68.6999C465.847 16.1663 606.535 15.3597 732.076 66.4572C857.618 117.555 957.753 216.38 1010.5 341.238C1063.25 466.096 1064.29 606.782 1013.41 732.41C962.523 858.038 863.868 958.342 739.1 1011.3C676.115 1037.96 608.396 1051.64 540 1051.5Z" fill="white"/>
<path d="M540 31C657.429 31.0713 771.223 71.733 862.105 146.097C952.988 220.461 1015.37 323.954 1038.68 439.045C1062 554.136 1044.81 673.749 990.037 777.62C935.261 881.49 846.263 963.233 738.12 1009C613.785 1061.26 473.793 1062.05 348.874 1011.2C223.955 960.35 124.318 862.009 71.8347 737.767C19.3511 613.525 18.3097 473.535 68.9392 348.526C119.569 223.517 217.732 123.705 341.88 71C404.556 44.4722 471.941 30.8673 540 31ZM540 26C256.13 26 26 256.13 26 540C26 823.87 256.13 1054 540 1054C823.87 1054 1054 823.87 1054 540C1054 256.13 823.87 26 540 26Z" fill="black"/>
<path d="M540 874C724.463 874 874 724.463 874 540C874 355.537 724.463 206 540 206C355.537 206 206 355.537 206 540C206 724.463 355.537 874 540 874Z" fill="#FFDE30" stroke="black" stroke-width="5" stroke-miterlimit="10"/>
<path fill-rule="evenodd" clip-rule="evenodd" d="M558 430.73H520.08L433.48 687.08H363L470.91 369.45H609.07L717 687.08H643.6L558 430.73Z" fill="black"/>
<path d="M217.21 761.52C219.885 756.988 221.188 751.778 220.96 746.52C220.643 740.64 218.9 734.925 215.88 729.87L194.93 692.77L110.82 740.29L120.13 756.79L152.82 738.32L164.46 759C167.232 764.183 171.228 768.612 176.1 771.9C180.471 774.804 185.593 776.371 190.84 776.41H190.94C196.208 776.29 201.364 774.867 205.948 772.269C210.532 769.671 214.401 765.978 217.21 761.52ZM188.43 718.25L199.88 738.51C202.03 742.33 202.81 745.66 202.2 748.41C201.59 751.16 199.66 753.32 196.27 755.24C192.88 757.16 189.93 757.67 187.27 756.82C184.61 755.97 182.1 753.57 179.95 749.76L168.5 729.49L188.43 718.25Z" fill="#000100"/>
<path d="M296.67 849.85L309.01 836.52L259.96 791.12L194.34 862.01L243.39 907.41L255.73 894.08L220.58 861.55L234.88 846.1L267.18 875.99L279.52 862.66L247.22 832.77L261.52 817.32L296.67 849.85Z" fill="#000100"/>
<path d="M404.76 888.86L347.82 908.09L364.88 870.68L347.65 862.82L307.56 950.71L324.8 958.57L338.18 929.24L351.02 924.95L364.7 976.77L387.22 987.03L368.92 918.78L427.23 899.11L404.76 888.86Z" fill="#000100"/>
<path d="M470.27 943.65C469.19 956.51 467.87 966.2 466.33 972.47C464.56 979.71 462.67 982.57 461.39 983.69C459.68 985.2 457.28 985.79 454.06 985.53C452.377 985.326 450.707 985.022 449.06 984.62L445.71 983.88L444.17 1002.36L446.8 1002.88C450.02 1003.5 452.35 1003.88 453.92 1004.01C462.52 1004.73 469.4 1002.63 474.33 997.78C479.01 993.17 482.39 986.59 484.33 978.21C486.23 970.21 487.74 959.67 488.81 946.77L490.38 928.09L526.71 931.09L520.19 1008.99L539.07 1010.57L547.12 914.31L473.12 908.12L470.27 943.65Z" fill="#000100"/>
<path d="M625.65 901.71L608.78 1006.23L628.78 1000.87L632.05 978.56L675.5 966.92L689.5 984.62L710.26 979.06L643.4 897L625.65 901.71ZM663.5 951.6L634.94 959.25L640.44 922.46L663.5 951.6Z" fill="#000100"/>
<path d="M788.49 817.29L798.26 886.98L734.14 858L715.71 871.8L773.62 949.12L788.78 937.77L749.68 885.56L820.85 917.78L809.84 839.87L849.25 892.48L864.41 881.13L806.5 803.8L788.49 817.29Z" fill="#000100"/>
<path d="M861 725.67L851.38 741.34L911 828.81L921.84 811.16L908.84 792.71L932.38 754.38L954.7 757.6L966 739.29L861 725.67ZM897.71 776.67L876.4 746.19L913.18 751.48L897.71 776.67Z" fill="#000100"/>
<path d="M215.19 353.75C218.136 348.601 219.819 342.826 220.1 336.9C220.307 331.723 219.031 326.595 216.42 322.12C213.74 317.721 209.909 314.139 205.34 311.76C201.845 309.771 197.917 308.663 193.898 308.532C189.878 308.402 185.887 309.252 182.27 311.01C181.75 308.07 180.674 305.257 179.1 302.72C176.637 298.911 173.225 295.81 169.2 293.72C164.869 291.297 159.959 290.104 155 290.27C149.997 290.508 145.168 292.181 141.09 295.09C136.46 298.436 132.69 302.833 130.09 307.92L109.39 346.19L194.39 392.14L215.19 353.75ZM168.49 356.58L179.93 335.42C182.12 331.37 184.57 328.77 187.21 327.7C189.69 326.7 192.42 327.04 195.57 328.75C198.9 330.55 200.82 332.75 201.44 335.46C202.06 338.17 201.3 341.77 199.13 345.8L187.69 367L168.49 356.58ZM134.21 338.05L145.59 317C147.71 313.08 150.06 310.59 152.59 309.63C154.94 308.71 157.59 309.09 160.73 310.78C164.1 312.6 166.07 314.78 166.73 317.45C167.39 320.12 166.73 323.45 164.67 327.32L153.3 348.37L134.21 338.05Z" fill="#000100"/>
<path d="M274.511 147.945L260.03 160.152L322.291 234.011L336.772 221.804L274.511 147.945Z" fill="#000100"/>
<path d="M291.54 260C296.129 256.314 299.753 251.568 302.1 246.17C304.145 241.334 304.736 236.007 303.8 230.84C302.718 225.667 300.368 220.843 296.961 216.802C293.554 212.761 289.196 209.63 284.28 207.69C279.348 205.894 274 205.574 268.89 206.77C263.172 208.17 257.88 210.94 253.47 214.84L235.38 230L211.18 201.3L196.7 213.55L259 287.41L291.54 260ZM279.54 246.36L261.75 261.36L247 243.83L264.8 228.83C268.15 226 271.29 224.62 274.1 224.71C276.91 224.8 279.39 226.3 281.9 229.28C284.41 232.26 285.47 235.05 285.12 237.81C284.77 240.57 282.88 243.49 279.53 246.31L279.54 246.36Z" fill="#000100"/>
<path d="M447.1 146.68C445.887 142.843 443.756 139.36 440.893 136.532C438.03 133.704 434.521 131.616 430.67 130.45C432.289 127.944 433.409 125.15 433.97 122.22C434.764 117.751 434.375 113.152 432.84 108.88C431.307 104.176 428.52 99.9789 424.78 96.7399C420.943 93.5182 416.26 91.4668 411.29 90.8299C405.621 90.1593 399.873 90.8448 394.52 92.8299L353.33 106.83L384.5 198.26L425.8 184.18C431.458 182.413 436.616 179.328 440.85 175.18C444.522 171.528 447.067 166.898 448.18 161.84C449.212 156.783 448.838 151.54 447.1 146.68ZM414.9 124.68C413.58 127.15 410.82 129.12 406.68 130.53L384 138.2L377 117.67L399.68 110C410.31 106.37 413.45 111.14 415 115.69C416.23 119.26 416.2 122.21 414.9 124.64V124.68ZM396.65 175.2L389.65 154.54L412.41 146.78C416.77 145.3 420.33 145.05 423 146.07C425.5 147.07 427.27 149.12 428.43 152.51C429.65 156.1 429.57 159.01 428.17 161.43C426.77 163.85 423.79 165.97 419.46 167.43L396.65 175.2Z" fill="#000100"/>
<path d="M521.88 149.01L521.72 127.96L565.73 127.62L565.58 109.45L521.58 109.79L521.41 88.74L569.3 88.37L569.16 70.2L502.33 70.72L503.08 167.32L569.91 166.8L569.77 148.64L521.88 149.01Z" fill="#000100"/>
<path d="M692.66 163.09C688.954 167.131 684.207 170.075 678.94 171.6C673.637 173.014 668.029 172.769 662.87 170.9C657.817 169.249 653.319 166.235 649.87 162.19C646.451 158.159 644.164 153.294 643.24 148.09C642.328 142.645 642.771 137.06 644.531 131.827C646.291 126.595 649.313 121.877 653.33 118.09C657.206 114.504 661.965 112.013 667.12 110.87C672.329 109.726 677.754 110.051 682.79 111.81C688.029 113.452 692.639 116.659 696 121C699.248 125.383 701.239 130.569 701.76 136L701.97 137.9L721.3 144.4L721.36 140.29C721.497 133.533 720.205 126.823 717.57 120.6C714.96 114.467 711.054 108.971 706.12 104.49C700.301 99.2951 693.363 95.5105 685.846 93.4294C678.328 91.3484 670.432 91.0269 662.77 92.4899C654.353 94.1769 646.538 98.0775 640.13 103.79C633.617 109.697 628.726 117.175 625.925 125.51C623.124 133.845 622.506 142.758 624.13 151.4C625.781 159.826 629.651 167.659 635.34 174.09C640.084 179.353 645.87 183.574 652.33 186.484C658.79 189.395 665.784 190.933 672.87 191C674.28 191 675.7 190.94 677.11 190.81C683.758 190.229 690.203 188.216 696 184.91C701.857 181.538 706.94 176.973 710.92 171.51L713.35 168.2L694 161.7L692.66 163.09Z" fill="#000100"/>
<path d="M775.35 212.07L788.85 211.09L789.29 264.69L808.56 280.2L807.72 209.54L869.09 204.92L849.86 189.43L789.93 193.96L815.72 161.94L800.96 150.06L740.37 225.3L755.13 237.18L775.35 212.07Z" fill="#000100"/>
<path d="M844.72 329.1L928.27 336.33L869.28 370.94L878.87 387.28L962.18 338.39L951.82 320.73L870.84 313.95L928.12 280.34L918.53 264L835.21 312.9L844.72 329.1Z" fill="#000100"/>
</svg>
