<svg width="1080" height="1080" viewBox="0 0 1080 1080" fill="none" xmlns="http://www.w3.org/2000/svg">
<path d="M540 1077.5C415.997 1077.42 295.833 1034.48 199.863 955.957C103.894 877.43 38.0187 768.142 13.3979 646.608C-11.2228 525.074 6.92422 398.766 64.765 289.079C122.606 179.393 216.584 93.072 330.78 44.7399C462.067 -10.3945 609.864 -11.1954 741.74 42.513C873.617 96.2214 978.801 200.052 1034.21 331.222C1089.63 462.392 1090.74 610.187 1037.31 742.177C983.88 874.167 880.272 979.57 749.22 1035.26C683.032 1063.27 611.872 1077.64 540 1077.5Z" fill="white"/>
<path d="M540 5C663.443 5.05529 783.072 47.7858 878.615 125.951C974.158 204.116 1039.74 312.909 1064.25 433.896C1088.76 554.882 1070.68 680.62 1013.09 789.806C955.499 898.992 861.931 984.909 748.24 1033C683.498 1060.35 614.004 1074.67 543.726 1075.16C473.447 1075.65 403.76 1062.29 338.644 1035.85C207.136 982.449 102.229 878.992 47 748.24C-8.22868 617.488 -9.25442 470.152 44.1484 338.644C97.5513 207.136 201.008 102.229 331.76 47C397.64 19.1303 468.468 4.84506 540 5ZM540 0C241.77 0 0 241.77 0 540C0 838.23 241.77 1080 540 1080C838.23 1080 1080 838.23 1080 540C1080 241.77 838.23 0 540 0Z" fill="black"/>
<path d="M540 1051.5C421.995 1051.43 307.642 1010.57 216.313 935.84C124.985 861.112 62.2955 757.11 38.8654 641.455C15.4353 525.799 32.705 405.599 87.749 301.218C142.793 196.837 232.227 114.693 340.9 68.6999C465.847 16.1663 606.535 15.3597 732.076 66.4572C857.618 117.555 957.753 216.38 1010.5 341.238C1063.25 466.096 1064.29 606.782 1013.41 732.41C962.523 858.038 863.868 958.342 739.1 1011.3C676.115 1037.96 608.396 1051.64 540 1051.5Z" fill="white"/>
<path d="M540 31C657.429 31.0713 771.223 71.733 862.105 146.097C952.988 220.461 1015.37 323.954 1038.68 439.045C1062 554.136 1044.81 673.749 990.037 777.62C935.261 881.49 846.263 963.233 738.12 1009C613.785 1061.26 473.793 1062.05 348.874 1011.2C223.955 960.35 124.318 862.009 71.8347 737.767C19.3511 613.525 18.3097 473.535 68.9392 348.526C119.569 223.517 217.732 123.705 341.88 71C404.556 44.4722 471.941 30.8673 540 31ZM540 26C256.13 26 26 256.13 26 540C26 823.87 256.13 1054 540 1054C823.87 1054 1054 823.87 1054 540C1054 256.13 823.87 26 540 26Z" fill="black"/>
<path d="M540 874C724.463 874 874 724.463 874 540C874 355.537 724.463 206 540 206C355.537 206 206 355.537 206 540C206 724.463 355.537 874 540 874Z" fill="#F8B001" stroke="black" stroke-width="5" stroke-miterlimit="10"/>
<path fill-rule="evenodd" clip-rule="evenodd" d="M558 430.73H520.08L433.48 687.08H363L470.91 369.45H609.07L717 687.08H643.6L558 430.73Z" fill="black"/>
<path d="M182.11 641.66L76.75 629.2L82.99 649.1L161.44 657.65L101.89 709.35L108.25 729.63L187.62 659.23L182.11 641.66Z" fill="black"/>
<path d="M133.19 778.32L145.59 795L167.59 789.77L194.54 825.91L183.26 845.49L196.13 862.74L247.75 770L236.75 755.24L133.19 778.32ZM222.92 776.71L204.33 809L186.61 785.24L222.92 776.71Z" fill="black"/>
<path d="M342.5 858.64C338.63 853.04 333.75 848.211 328.11 844.4C323.031 840.788 317.298 838.2 311.23 836.78C305.299 835.391 299.117 835.484 293.23 837.05C287.14 838.72 281.612 842.002 277.23 846.55L274.72 849.07L290.6 860.23L292.38 858.49C293.882 856.913 295.709 855.682 297.735 854.882C299.761 854.083 301.936 853.734 304.11 853.86C309.131 854.233 313.945 856.015 318 859C323.21 862.66 326.6 866.43 328.07 870.21C328.743 871.745 328.991 873.433 328.789 875.097C328.587 876.761 327.941 878.341 326.92 879.67C326.07 880.888 324.955 881.898 323.66 882.625C322.365 883.352 320.923 883.778 319.44 883.87C316.03 884.23 312.19 882.93 308.01 880L293.65 870L283.41 884.57L297.76 894.64C303.18 898.44 306.54 902.1 307.49 905.21C307.96 906.528 308.097 907.941 307.889 909.324C307.681 910.707 307.136 912.018 306.3 913.14C305.305 914.617 303.945 915.813 302.353 916.612C300.761 917.411 298.989 917.785 297.21 917.7C292.89 917.7 287.9 915.7 282.35 911.84C277.27 908.26 273.79 904.26 272.01 899.92C270.23 895.58 270.19 890.71 271.76 885.13L272.33 883.08L256.87 872.22L255.34 875.42C250.91 884.65 250.28 894 253.47 903.19C256.61 912.19 262.86 920.06 272.05 926.51C281.45 933.12 290.58 936.46 299.18 936.46H299.98C309.16 936.25 316.6 932.18 322.07 924.38C327.36 916.85 328.27 908.9 324.79 900.69C327.758 900.525 330.672 899.823 333.39 898.62C337.554 896.726 341.122 893.732 343.71 889.96C346.91 885.53 348.491 880.136 348.19 874.68C347.776 868.918 345.81 863.375 342.5 858.64Z" fill="black"/>
<path d="M370.21 978.75L434.07 998.9L439.55 981.54L393.77 967.11L400.13 946.98L442.19 960.24L447.66 942.89L405.6 929.62L411.95 909.49L457.72 923.93L463.19 906.58L399.33 886.43L370.21 978.75Z" fill="black"/>
<path d="M567.68 917.34C562.413 914.685 556.577 913.356 550.68 913.47L507.98 913.26L507.51 1010.06L526.51 1010.16L526.7 972.54L550.42 972.66H550.66C556.476 972.793 562.238 971.523 567.46 968.96C572.158 966.596 576.067 962.917 578.71 958.37C581.25 953.722 582.594 948.515 582.62 943.219C582.646 937.922 581.354 932.703 578.86 928.03C576.252 923.455 572.367 919.74 567.68 917.34ZM526.87 931.55L550.2 931.66C554.6 931.66 557.89 932.66 559.98 934.57C562.07 936.48 562.98 939.22 562.98 943.12C562.98 947.02 561.98 949.85 559.88 951.73C557.78 953.61 554.44 954.6 550.1 954.59L526.76 954.48L526.87 931.55Z" fill="black"/>
<path d="M687.71 886.41L623.61 905.8L651.64 998.45L669.8 992.96L647.11 917.97L693.05 904.07L687.71 886.41Z" fill="black"/>
<path d="M802 851.65C799.112 847.198 795.1 843.586 790.37 841.18C785.656 838.845 780.362 837.938 775.14 838.57C769.292 839.332 763.718 841.508 758.9 844.91L723.4 868.67L777.29 949.09L793.05 938.53L772.11 907.28L791.81 894.07C796.774 890.903 800.893 886.575 803.81 881.46C806.378 876.869 807.553 871.628 807.19 866.38C806.782 861.1 804.992 856.02 802 851.65ZM788 871.43C787.33 874.2 785.14 876.84 781.49 879.28L762.11 892.28L749.35 873.28L768.73 860.28C772.39 857.83 775.66 856.8 778.46 857.2C781.26 857.6 783.56 859.37 785.73 862.61C787.9 865.85 788.59 868.72 787.94 871.43H788Z" fill="black"/>
<path d="M828.36 781.5L876.19 876.2L889.26 860.09L878.78 840.09L907.17 805.09L928.93 811.21L942.49 794.49L840 767.2L828.36 781.5ZM852.56 789.62L888.43 799.69L869.75 822.69L852.56 789.62Z" fill="black"/>
<path d="M977.49 679L981.71 666.75C984.065 660.45 984.851 653.672 984 647C983.214 641.063 980.68 635.493 976.72 631C972.659 626.633 967.585 623.332 961.947 621.39C956.309 619.447 950.279 618.922 944.39 619.86C938.49 620.96 933.052 623.794 928.77 628C923.997 632.712 920.439 638.511 918.4 644.9L914.18 657.14L898.85 651.86L892.67 669.79L908 675.06L903.78 687.31C901.45 693.595 900.675 700.35 901.52 707C902.316 712.936 904.853 718.504 908.81 723C912.82 727.426 917.909 730.738 923.58 732.61C927.367 733.93 931.349 734.606 935.36 734.61C937.298 734.612 939.233 734.438 941.14 734.09C947.016 732.994 952.435 730.179 956.71 726C961.481 721.287 965.04 715.488 967.08 709.1L971.3 696.86L986.63 702.14L992.81 684.21L977.49 679ZM953.86 690.92L949.63 703.17C947.81 708.45 945.18 712.03 941.81 713.81C938.44 715.59 934.59 715.66 929.98 714.07C925.37 712.48 922.36 710.07 920.82 706.57C919.28 703.07 919.4 698.65 921.21 693.37L925.44 681.12L953.86 690.92ZM964.26 660.74L960 672.94L931.58 663.14L935.8 650.89C937.62 645.61 940.25 642.03 943.62 640.25C946.99 638.47 950.84 638.39 955.46 639.99C960.08 641.59 963.08 643.99 964.62 647.49C966.16 650.99 966.08 655.41 964.26 660.69V660.74Z" fill="black"/>
<path d="M180.76 447.97L122.57 394.66L201.17 388.23L208.04 368.11L102.4 377.9L96.45 395.32L174.01 467.71L180.76 447.97Z" fill="black"/>
<path d="M230.62 333.83L219.85 314L247.73 278.57L269.58 284.37L282.89 267.46L180 241.67L168.61 256.14L217.82 350.14L230.62 333.83ZM192.89 263.9L228.89 273.45L210.55 296.74L192.89 263.9Z" fill="black"/>
<path d="M331.35 172.21C332.254 169.379 332.64 166.408 332.49 163.44C332.214 158.876 330.696 154.474 328.1 150.71C325.111 146.137 320.642 142.73 315.44 141.06C309.914 139.393 304.041 139.248 298.44 140.64C291.827 142.256 285.573 145.091 280 149C274.813 152.44 270.343 156.855 266.84 162C263.419 167.046 261.293 172.857 260.65 178.92C260.027 185.213 261.108 191.558 263.78 197.29L265.24 200.54L281.34 189.7L280.34 187.41C279.406 185.443 278.911 183.296 278.89 181.118C278.87 178.941 279.323 176.785 280.22 174.8C282.371 170.231 285.777 166.367 290.04 163.66C295.32 160.1 300.04 158.29 304.11 158.27H304.17C305.835 158.199 307.488 158.576 308.958 159.36C310.428 160.144 311.662 161.308 312.53 162.73C313.363 163.959 313.907 165.359 314.122 166.828C314.336 168.297 314.216 169.795 313.77 171.21C312.9 174.53 310.3 177.65 306.07 180.5L291.53 190.29L301.47 205.06L316 195.29C321.5 191.6 326.12 189.76 329.36 189.99C330.761 190.023 332.133 190.401 333.354 191.09C334.575 191.779 335.607 192.758 336.36 193.94C337.382 195.399 338.01 197.097 338.186 198.869C338.361 200.642 338.076 202.429 337.36 204.06C335.82 208.06 332.19 212.06 326.57 215.83C321.41 219.3 316.42 221.12 311.74 221.22C307.06 221.32 302.48 219.63 297.84 216.17L296.13 214.9L280.46 225.45L282.9 228C289.9 235.44 298.44 239.37 308.17 239.67C308.6 239.67 309.04 239.67 309.47 239.67C318.58 239.67 327.7 236.67 336.59 230.67C346.42 224.05 352.91 216.47 355.87 208.15C358.96 199.49 357.82 191.09 352.5 183.15C347.36 175.59 340.25 171.9 331.35 172.21Z" fill="black"/>
<path d="M416.11 169.44L409.89 149.27L452.04 136.28L446.68 118.89L404.53 131.88L398.31 111.71L444.18 97.5699L438.81 80.1899L374.82 99.9199L403.35 192.42L467.34 172.69L461.98 155.3L416.11 169.44Z" fill="black"/>
<path d="M525.8 129.16L549.53 129.04C555.426 129.152 561.261 127.827 566.53 125.18C571.204 122.768 575.078 119.051 577.68 114.48C580.166 109.804 581.452 104.585 581.424 99.2899C581.396 93.9947 580.055 88.7892 577.52 84.14C574.877 79.5932 570.968 75.9136 566.27 73.55C561.05 70.9912 555.292 69.7256 549.48 69.86H549.22L506.53 70.08L507.02 166.88L526.02 166.78L525.8 129.16ZM525.6 88.16L548.93 88.04C553.33 88.04 556.62 88.97 558.74 90.85C560.86 92.73 561.74 95.48 561.81 99.38C561.88 103.28 560.81 106.12 558.81 108.02C556.81 109.92 553.44 110.95 549.05 111.02L525.72 111.14L525.6 88.16Z" fill="black"/>
<path d="M617.48 173.27L635.72 178.48L657.21 103.14L703.37 116.3L708.43 98.5599L644.03 80.1899L617.48 173.27Z" fill="black"/>
<path d="M749.15 184.61L769.2 197.28C774.113 200.55 779.749 202.575 785.62 203.18C790.854 203.669 796.118 202.627 800.77 200.18C805.393 197.584 809.298 193.879 812.131 189.397C814.965 184.916 816.638 179.8 817 174.51C817.223 169.248 815.906 164.035 813.21 159.51C810.148 154.47 805.902 150.255 800.84 147.23L764.75 124.43L713 206.28L729 216.42L749.15 184.61ZM790.76 162.42C794.48 164.77 796.76 167.34 797.52 170.07C798.28 172.8 797.6 175.61 795.52 178.91C793.44 182.21 791.08 184.07 788.34 184.57C785.6 185.07 782.23 184.15 778.52 181.8L758.79 169.34L771 150L790.76 162.42Z" fill="black"/>
<path d="M843.09 317.3L857.24 333.52L901.63 237.16L889.52 223.29L788 254.21L801.64 269.85L823.16 262.94L852.8 296.94L843.09 317.3ZM841.83 257L877.39 245.72L861.33 279.34L841.83 257Z" fill="black"/>
<path d="M898.68 341.8C894.901 346.421 892.576 352.058 892 358C891.397 364.677 892.427 371.4 895 377.59L899.7 389.66L884.59 395.54L891.47 413.22L906.58 407.34L911.28 419.41C913.563 425.708 917.337 431.359 922.28 435.88C926.718 439.884 932.245 442.48 938.16 443.34C939.654 443.552 941.161 443.659 942.67 443.66C947.124 443.635 951.534 442.773 955.67 441.12C961.276 439.055 966.249 435.568 970.1 431C973.874 426.367 976.188 420.719 976.75 414.77C977.349 408.093 976.319 401.371 973.75 395.18L969 383.07L984.11 377.18L977.23 359.51L962.12 365.39L957.42 353.32C955.132 347.022 951.359 341.368 946.42 336.84C941.979 332.843 936.453 330.25 930.54 329.39C924.619 328.683 918.615 329.446 913.058 331.61C907.501 333.775 902.563 337.274 898.68 341.8ZM923.83 400.67L951.83 389.76L956.53 401.84C958.53 407.04 958.87 411.47 957.45 415.01C956.03 418.55 953.14 421.1 948.59 422.87C944.04 424.64 940.17 424.71 936.75 423.07C933.33 421.43 930.55 417.95 928.52 412.74L923.83 400.67ZM911.32 357.75C912.73 354.24 915.63 351.67 920.18 349.89C924.73 348.11 928.6 348.05 932.02 349.69C935.44 351.33 938.23 354.81 940.25 360.01L945 372.09L917 382.99L912.3 370.92C910.22 365.72 909.91 361.29 911.32 357.75Z" fill="black"/>
</svg>
