<svg width="1080" height="1080" viewBox="0 0 1080 1080" fill="none" xmlns="http://www.w3.org/2000/svg">
<path d="M540 1077.5C415.997 1077.42 295.833 1034.48 199.863 955.957C103.894 877.43 38.0187 768.142 13.3979 646.608C-11.2228 525.074 6.92422 398.766 64.765 289.079C122.606 179.393 216.584 93.072 330.78 44.7399C462.067 -10.3945 609.864 -11.1954 741.74 42.513C873.617 96.2214 978.801 200.052 1034.21 331.222C1089.63 462.392 1090.74 610.187 1037.31 742.177C983.88 874.167 880.272 979.57 749.22 1035.26C683.032 1063.27 611.872 1077.64 540 1077.5Z" fill="white"/>
<path d="M540 5C663.443 5.05529 783.072 47.7858 878.615 125.951C974.158 204.116 1039.74 312.909 1064.25 433.896C1088.76 554.882 1070.68 680.62 1013.09 789.806C955.499 898.992 861.931 984.909 748.24 1033C683.498 1060.35 614.004 1074.67 543.726 1075.16C473.447 1075.65 403.76 1062.29 338.644 1035.85C207.136 982.449 102.229 878.992 47 748.24C-8.22868 617.488 -9.25442 470.152 44.1484 338.644C97.5513 207.136 201.008 102.229 331.76 47C397.64 19.1303 468.468 4.84506 540 5ZM540 0C241.77 0 0 241.77 0 540C0 838.23 241.77 1080 540 1080C838.23 1080 1080 838.23 1080 540C1080 241.77 838.23 0 540 0Z" fill="black"/>
<path d="M540 1051.5C421.995 1051.43 307.642 1010.57 216.313 935.84C124.985 861.112 62.2956 757.11 38.8655 641.455C15.4355 525.799 32.7052 405.599 87.7491 301.218C142.793 196.837 232.227 114.693 340.9 68.6999C465.847 16.1663 606.535 15.3597 732.076 66.4572C857.618 117.555 957.753 216.38 1010.5 341.238C1063.25 466.096 1064.29 606.782 1013.41 732.41C962.523 858.038 863.868 958.342 739.1 1011.3C676.115 1037.96 608.396 1051.64 540 1051.5Z" fill="white"/>
<path d="M540 31C657.429 31.0713 771.223 71.733 862.105 146.097C952.988 220.461 1015.37 323.954 1038.68 439.045C1062 554.136 1044.81 673.749 990.037 777.62C935.261 881.49 846.263 963.233 738.12 1009C613.785 1061.26 473.793 1062.05 348.874 1011.2C223.955 960.35 124.318 862.009 71.8347 737.767C19.3511 613.525 18.3097 473.535 68.9392 348.526C119.569 223.517 217.732 123.705 341.88 71C404.556 44.4722 471.941 30.8673 540 31ZM540 26C256.13 26 26 256.13 26 540C26 823.87 256.13 1054 540 1054C823.87 1054 1054 823.87 1054 540C1054 256.13 823.87 26 540 26Z" fill="black"/>
<path d="M540 874C724.463 874 874 724.463 874 540C874 355.537 724.463 206 540 206C355.537 206 206 355.537 206 540C206 724.463 355.537 874 540 874Z" fill="#EA5C47" stroke="black" stroke-width="5" stroke-miterlimit="10"/>
<path fill-rule="evenodd" clip-rule="evenodd" d="M558 430.73H520.08L433.48 687.08H363L470.91 369.45H609.07L717 687.08H643.6L558 430.73Z" fill="black"/>
<path d="M183.16 648.45L116.24 627.69L169.54 582.22L164.92 559.74L70.6499 579.12L74.4599 597.62L138.06 584.55L78.8399 634.99L153.7 658.12L89.5999 671.3L93.4099 689.8L187.68 670.42L183.16 648.45Z" fill="black"/>
<path d="M219.64 728.43L115.07 742.26L125.92 759.84L148.15 756.57L171.68 794.67L158.8 813.08L170.06 831.32L229.27 744L219.64 728.43ZM167.42 753.79L204 748.51L182.83 778.81L167.42 753.79Z" fill="black"/>
<path d="M302 824.29C295.395 818.521 287.368 814.623 278.75 813C270.344 811.421 261.67 812.111 253.62 815C245.401 818.027 238.094 823.109 232.396 829.761C226.698 836.413 222.799 844.414 221.07 853C219.46 861.397 220.116 870.071 222.97 878.13C225.624 885.437 229.925 892.034 235.541 897.411C241.156 902.787 247.934 906.797 255.35 909.13C261.709 911.068 268.414 911.6 275 910.69C281.669 909.766 288.068 907.446 293.78 903.88L297.27 901.72L281.83 888.49L280.08 889.29C275.146 891.633 269.662 892.571 264.23 892C258.804 891.332 253.712 889.018 249.64 885.37C245.572 881.961 242.526 877.493 240.84 872.46C239.199 867.471 238.91 862.137 240 857C241.187 851.634 243.678 846.643 247.251 842.468C250.825 838.293 255.372 835.062 260.49 833.06C265.408 831.196 270.732 830.668 275.92 831.53C281.143 832.431 286.015 834.756 290 838.25C294.228 841.709 297.298 846.378 298.8 851.63C300.189 856.91 300.095 862.47 298.53 867.7L298.01 869.55L313.46 882.77L315.06 878.99C317.7 872.795 319.005 866.113 318.89 859.38C318.77 852.743 317.214 846.21 314.33 840.23C311.376 834.115 307.177 828.685 302 824.29Z" fill="black"/>
<path d="M345.33 881.29L374.83 894.26L343.5 965.54L360.79 973.15L392.13 901.87L421.63 914.84L429.03 898.01L352.73 864.47L345.33 881.29Z" fill="black"/>
<path d="M446.7 1000.59L512.66 1009.7L515.14 991.75L467.89 985.23L470.76 964.48L514.18 970.48L516.66 952.53L473.24 946.53L476.1 925.79L523.35 932.31L525.83 914.37L459.87 905.25L446.7 1000.59Z" fill="black"/>
<path d="M634.56 917.79C631.31 913.708 626.948 910.655 622 909C616.422 907.194 610.489 906.769 604.71 907.76L562.71 913.98L576.8 1009.18L595.49 1006.42L590.01 969.42L613.31 965.97C619.133 965.254 624.693 963.13 629.51 959.78C633.772 956.749 637.062 952.545 638.98 947.68C640.775 942.728 641.312 937.407 640.54 932.197C639.768 926.986 637.713 922.049 634.56 917.83V917.79ZM587.38 951.59L584.05 929.08L607 925.69C611.31 925.05 614.69 925.52 617 927.07C619.31 928.62 620.65 931.19 621.21 935.02C621.77 938.85 621.21 941.77 619.47 943.92C617.73 946.07 614.61 947.56 610.3 948.2L587.38 951.59Z" fill="black"/>
<path d="M773.79 909.12L755.48 918V919.92C755.652 925.374 754.324 930.77 751.64 935.52C748.846 940.216 744.684 943.946 739.71 946.21C734.954 948.569 729.638 949.566 724.35 949.09C719.115 948.605 714.103 946.734 709.83 943.67C705.39 940.43 701.817 936.145 699.427 931.195C697.038 926.245 695.905 920.782 696.13 915.29C696.407 910.018 698.089 904.915 701 900.51C703.912 896.075 707.997 892.534 712.8 890.28C717.664 887.79 723.175 886.851 728.59 887.59C733.985 888.437 739.042 890.751 743.21 894.28L744.69 895.5L763 886.66L760.17 883.66C755.562 878.752 749.97 874.871 743.76 872.27C737.629 869.715 731.017 868.521 724.38 868.77C716.62 869.132 709.047 871.275 702.248 875.032C695.449 878.79 689.605 884.062 685.17 890.44C680.351 897.506 677.5 905.728 676.91 914.26C676.303 923.01 678.028 931.765 681.91 939.63C685.648 947.566 691.429 954.365 698.66 959.33C705.707 964.178 713.919 967.06 722.45 967.68C723.65 967.77 724.86 967.81 726.06 967.81C733.591 967.778 741.015 966.03 747.77 962.7C753.899 959.777 759.349 955.604 763.77 950.45C768.086 945.406 771.258 939.487 773.07 933.1C774.901 926.622 775.344 919.831 774.37 913.17L773.79 909.12Z" fill="black"/>
<path d="M834.32 775.83L816.5 792.83L813.17 852.57L784.92 822.95L771.25 835.99L837.67 905.63L851.34 892.6L829.17 869.35L829.97 855.91L882.94 862.46L900.79 845.43L830.89 837.05L834.32 775.83Z" fill="black"/>
<path d="M864.6 726L928.75 809.73L938.57 791.55L924.65 773.92L945.94 734.52L968.31 736.52L978.5 717.66L873.31 709.9L864.6 726ZM889.79 729.5L926.6 732.73L912.6 758.61L889.79 729.5Z" fill="black"/>
<path d="M1004.94 611.89L1008.51 593.34L914 575.15L906 616.84C904.759 622.572 904.931 628.519 906.5 634.17C907.949 639.194 910.825 643.689 914.78 647.11C918.818 650.509 923.682 652.782 928.88 653.7C935.758 655.185 942.94 654.118 949.09 650.7C953.943 647.92 957.84 643.737 960.27 638.7L992.56 676.36L996.99 653.36L965.81 617.56L968.25 604.85L1004.94 611.89ZM941.67 633C939.34 634.75 936.36 635.24 932.55 634.51C928.74 633.78 926.16 632.21 924.64 629.72C923.12 627.23 922.72 623.72 923.54 619.42L927.85 597.04L950.85 601.47L946.54 623.84C945.69 628.13 944.06 631.22 941.67 633Z" fill="black"/>
<path d="M190.48 418.67L131.57 391.35L209.17 386.02L162.75 322.9L222.12 350.43L230.07 333.29L142.76 292.8L133.32 313.15L174.77 369.64L104.87 374.5L95.22 395.32L182.53 435.81L190.48 418.67Z" fill="black"/>
<path d="M215 207.9L249.57 307.56L264.57 293.39L257 272.28L289.6 241.57L310.21 250.49L325.82 235.79L228.4 195.34L215 207.9ZM237.81 219.14L271.75 233.8L250.38 254L237.81 219.14Z" fill="black"/>
<path d="M393.13 96.1799L370.71 106.39L347.96 161.73L331 124.48L313.81 132.31L353.69 219.89L370.89 212.06L357.57 182.83L362.74 170.4L410.62 193.97L433.08 183.74L369.8 152.89L393.13 96.1799Z" fill="black"/>
<path d="M481.83 157.14L479.27 136.35L522.77 131.01L520.56 113.02L477.06 118.37L474.5 97.59L521.85 91.77L519.63 73.78L453.54 81.91L465.29 177.43L531.38 169.3L529.17 151.32L481.83 157.14Z" fill="black"/>
<path d="M574.74 92.32L606.51 97.72L593.46 174.48L612.09 177.65L625.13 100.88L656.91 106.28L659.98 88.17L577.81 74.2L574.74 92.32Z" fill="black"/>
<path d="M711.17 168.27L751.53 189.43L733.45 223.91L750.18 232.68L794.87 147.44L778.14 138.67L760.06 173.15L719.7 151.99L737.78 117.51L721.05 108.74L676.36 193.98L693.09 202.75L711.17 168.27Z" fill="black"/>
<path d="M790.74 265.9L811.92 258.41L842.34 291.28L833.25 311.82L847.81 327.54L889.11 230.49L876.66 217L776.71 250.7L790.74 265.9ZM830.3 252L865.22 239.78L850.22 273.58L830.3 252Z" fill="black"/>
<path d="M857.93 343.89L867.58 365.21L913.7 376.46L919 388.25L885 403.66L892.78 420.88L980.47 381.2L963 342.53C960.707 337.127 957.134 332.364 952.59 328.65C948.509 325.381 943.564 323.373 938.36 322.87C933.087 322.416 927.788 323.365 923 325.62C916.524 328.37 911.273 333.387 908.23 339.73C905.847 344.8 905.069 350.476 906 356L857.93 343.89ZM935.19 380.94L925.8 360.18C924 356.18 923.55 352.75 924.47 349.91C925.39 347.07 927.47 345.01 931.05 343.41C932.812 342.543 934.738 342.063 936.7 342C937.928 341.993 939.144 342.241 940.27 342.73C943.01 343.92 945.27 346.53 947.11 350.51L956.5 371.27L935.19 380.94Z" fill="black"/>
</svg>
