<?xml version="1.0" encoding="utf-8"?><svg viewBox="0 0 1080 1080" xmlns="http://www.w3.org/2000/svg" xmlns:xlink="http://www.w3.org/1999/xlink"><style>:root>svg{display:none}:root>svg:target{display:block}</style><svg fill="none" viewBox="0 0 346 346" id="anchor" xmlns="http://www.w3.org/2000/svg"><path d="M172.999 345.199A172.239 172.239 0 014.292 207.154a172.243 172.243 0 01101.68-192.82 172.242 172.242 0 01226.351 223.438 172.243 172.243 0 01-92.296 93.895 171.119 171.119 0 01-67.028 13.532z" fill="#fff"/><path d="M173 1.602A171.442 171.442 0 01324.564 253.03a171.44 171.44 0 01-84.85 77.913 171.456 171.456 0 01-225.57-222.451 171.453 171.453 0 0192.142-93.435A170.286 170.286 0 01173 1.602zM173 0C77.456 0 0 77.456 0 173s77.456 173 173 173 173-77.456 173-173S268.544 0 173 0z" fill="#1E252B"/><path d="M173.001 336.869A163.907 163.907 0 0128.113 96.501a163.91 163.91 0 0181.102-74.492 163.91 163.91 0 01215.452 212.634 163.916 163.916 0 01-87.88 89.348 162.806 162.806 0 01-63.786 12.878z" fill="#fff"/><path d="M173 9.931a163.11 163.11 0 0163.472 313.323A163.11 163.11 0 01109.529 22.746 162.023 162.023 0 01173 9.931zm0-1.601C82.057 8.33 8.33 82.056 8.33 173c0 90.943 73.727 164.67 164.67 164.67 90.944 0 164.671-73.727 164.671-164.67C337.671 82.056 263.944 8.33 173 8.33z" fill="#1E252B"/><path d="M172.818 279.823c59.097 0 107.004-47.908 107.004-107.004 0-59.097-47.907-107.004-107.004-107.004-59.096 0-107.004 47.907-107.004 107.004 0 59.096 47.908 107.004 107.004 107.004z" fill="#ECECEC" stroke="#1E252B" stroke-miterlimit="10"/><g class="aanchor-rotate" fill="#1E252B"><circle cx="44.306" cy="175.352" r="6.773"/><circle cx="303.95" cy="175.352" r="6.773"/><path d="M60.242 120.397l-1.4 3.491-21.084-8.456-5.6 13.962 21.083 8.456-1.4 3.491-24.434-9.801 8.4-20.943 24.434 9.8zm11.628-19.574c-1.119 1.48-2.48 2.574-4.082 3.28-1.622.691-3.287.941-4.997.749-1.729-.207-3.314-.855-4.754-1.943-1.44-1.088-2.486-2.429-3.137-4.02a9.404 9.404 0 01-.644-5.012c.222-1.75.893-3.364 2.011-4.845 1.104-1.46 2.46-2.525 4.066-3.197a9.405 9.405 0 014.997-.749c1.71.192 3.284.832 4.725 1.92 1.44 1.089 2.495 2.437 3.167 4.044.65 1.592.865 3.263.643 5.012-.227 1.714-.892 3.301-1.995 4.761zm-2.64-1.995c.695-.92 1.11-1.927 1.244-3.02a6.295 6.295 0 00-.5-3.205c-.468-1.045-1.181-1.93-2.142-2.656-.96-.725-1.996-1.163-3.109-1.313-1.132-.164-2.206-.033-3.22.395a5.985 5.985 0 00-2.595 1.999 6.25 6.25 0 00-1.26 3.102c-.135 1.092.032 2.161.5 3.206.447 1.03 1.151 1.907 2.111 2.633.96.725 2.007 1.17 3.14 1.335a6.293 6.293 0 003.22-.395c1.03-.447 1.9-1.141 2.61-2.081zm14.736-25.543l-.45 3.618 4.013 4.782-2.68 2.249-12.087-14.405 2.68-2.248 5.415 6.453L82.212 61.6l3.63-3.047-1.426 11.114 14.118 2.784-3.659 3.07-10.91-2.236zm21.59-27.985c1.472-.757 3.005-1.065 4.598-.925 1.583.117 3.058.656 4.425 1.617 1.367.96 2.48 2.277 3.34 3.95.859 1.672 1.281 3.344 1.265 5.015-.015 1.671-.431 3.195-1.245 4.572-.827 1.355-1.976 2.41-3.448 3.166a7.795 7.795 0 01-3.522.88 8.541 8.541 0 01-3.592-.82l4.21 8.197-3.178 1.632L96.896 50.17l3.01-1.546 1.393 2.71c.221-1.326.695-2.514 1.424-3.565a7.635 7.635 0 012.833-2.47zm6.888 14.726c.981-.504 1.736-1.202 2.265-2.094.528-.891.792-1.886.791-2.985-.012-1.121-.299-2.228-.86-3.321-.561-1.093-1.288-1.96-2.181-2.6-.904-.664-1.873-1.04-2.905-1.13-1.033-.09-2.04.118-3.021.622-.982.504-1.748 1.208-2.299 2.11-.55.904-.82 1.916-.808 3.037.001 1.099.282 2.195.844 3.288.561 1.092 1.294 1.97 2.198 2.633.893.641 1.867 1 2.922 1.079 1.054.078 2.073-.135 3.054-.639zm33.042-28.874l-4.767 27.085-3.765.914 1.3-7.243-13.272-15.781 4.13-1.002 10.074 12.648 2.462-15.69 3.838-.931zm28.8.589l-6.579.203.476 15.412-3.571.11-.476-15.412-6.578.204-.105-3.384 16.728-.516.105 3.383zm13.064-3.267l3.514.643-2.516 13.762 12.135-12.003 3.885.71-3.382 18.497-3.515-.642 2.516-13.762-12.135 12.003-3.884-.71 3.382-18.498zm54.526 27.564c1.144 1.73 1.235 3.432.271 5.105-.775 1.347-1.902 2.173-3.381 2.48-1.465.283-3.056-.069-4.773-1.057l-8.18-4.711 9.385-16.295 8.18 4.71c1.63.94 2.667 2.101 3.114 3.487.48 1.376.351 2.705-.387 3.987a4.674 4.674 0 01-1.755 1.766c-.698.409-1.523.584-2.474.528zm-2.761-3.195c.804.463 1.519.629 2.145.497.625-.132 1.144-.556 1.557-1.273.764-1.325.33-2.457-1.299-3.395l-4.791-2.76-2.402 4.172 4.79 2.759zm-3.946 6.928c.869.5 1.627.691 2.274.572.682-.128 1.229-.55 1.642-1.268.388-.673.454-1.315.198-1.926-.222-.62-.767-1.18-1.637-1.68l-4.823-2.778-2.477 4.302 4.823 2.778zm38.925 9.269L261.34 82.857l-2.626-2.423 5.23-5.665-7.185-6.633-5.23 5.665-2.625-2.423 12.755-13.818 2.625 2.424-5.23 5.665 7.186 6.632 5.229-5.665 2.625 2.424zm11.798 12.109l1.995 2.964-11.607 7.81 17.066.303 2.205 3.276L279.95 106l-1.995-2.964 11.607-7.81-17.066-.303-2.205-3.276 15.601-10.498zm6.451 34.623c-.908.707-1.447 1.564-1.616 2.574-.161 1.032.025 2.225.556 3.579.494 1.26 1.114 2.189 1.86 2.785.769.587 1.516.738 2.239.454.63-.247 1.057-.738 1.281-1.472.247-.743.105-1.792-.427-3.145l-1.195-3.046 2.871-1.127 1.14 2.906c.477 1.214 1.037 1.99 1.682 2.33.654.363 1.296.42 1.926.173.794-.311 1.282-.92 1.465-1.827.192-.884.045-1.944-.44-3.181-.467-1.19-1.078-2.095-1.833-2.715-.746-.596-1.643-.823-2.691-.681l-1.292-3.291c1.87-.383 3.579-.044 5.127 1.019 1.571 1.053 2.746 2.572 3.525 4.555.861 2.194 1.078 4.156.653 5.885-.403 1.72-1.374 2.882-2.915 3.487a4.35 4.35 0 01-2.417.222c-.819-.164-1.591-.588-2.318-1.273-.01 2.24-.948 3.726-2.815 4.459-1.611.632-3.181.44-4.711-.576-1.52-.992-2.748-2.679-3.682-5.059-.843-2.148-1.032-4.174-.568-6.08.464-1.906 1.561-3.333 3.29-4.281l1.305 3.326zm-6.585 108.892l1.4-3.491 21.083 8.456 5.6-13.962-21.083-8.456 1.4-3.491 24.434 9.801-8.4 20.943-24.434-9.8zm-11.629 19.574c1.119-1.48 2.479-2.574 4.082-3.28 1.622-.691 3.288-.941 4.997-.749 1.729.207 3.314.855 4.754 1.943 1.44 1.088 2.486 2.429 3.137 4.021a9.403 9.403 0 01.644 5.011c-.222 1.75-.893 3.364-2.011 4.845-1.104 1.46-2.459 2.525-4.066 3.197a9.415 9.415 0 01-4.997.749c-1.71-.192-3.284-.832-4.724-1.921-1.441-1.088-2.496-2.436-3.167-4.043-.652-1.592-.866-3.262-.644-5.012.227-1.714.892-3.301 1.995-4.761zm2.641 1.995c-.695.92-1.11 1.927-1.245 3.019a6.302 6.302 0 00.5 3.206c.468 1.045 1.181 1.93 2.142 2.656.96.726 1.996 1.163 3.109 1.313 1.133.164 2.206.033 3.221-.395a5.98 5.98 0 002.594-1.999 6.24 6.24 0 001.26-3.102c.135-1.092-.032-2.161-.499-3.206-.448-1.029-1.152-1.907-2.112-2.633-.96-.725-2.007-1.17-3.139-1.335a6.293 6.293 0 00-3.221.395c-1.03.447-1.9 1.141-2.61 2.081zm-14.737 25.543l.45-3.618-4.013-4.782 2.68-2.249 12.087 14.405-2.679 2.248-5.415-6.453-1.355 12.135-3.63 3.046 1.425-11.114-14.118-2.783 3.659-3.071 10.909 2.236zm-21.59 27.986c-1.472.756-3.004 1.064-4.598.924-1.583-.117-3.057-.656-4.425-1.617-1.367-.96-2.48-2.277-3.339-3.95-.86-1.672-1.281-3.344-1.266-5.015.016-1.671.431-3.195 1.246-4.572.826-1.355 1.975-2.41 3.447-3.166a7.788 7.788 0 013.523-.879 8.538 8.538 0 013.591.819l-4.21-8.197 3.178-1.632 11.513 22.414-3.011 1.546-1.391-2.709c-.221 1.325-.696 2.513-1.425 3.564a7.637 7.637 0 01-2.833 2.47zm-6.888-14.727c-.981.504-1.736 1.202-2.264 2.094-.529.891-.793 1.886-.792 2.985.012 1.121.299 2.228.86 3.321.561 1.093 1.288 1.96 2.181 2.601.905.663 1.873 1.039 2.906 1.129 1.032.089 2.039-.118 3.021-.622.981-.504 1.747-1.208 2.298-2.111.551-.903.82-1.915.808-3.036-.001-1.099-.282-2.195-.843-3.288-.562-1.092-1.295-1.97-2.199-2.633a5.65 5.65 0 00-2.921-1.079c-1.055-.078-2.073.135-3.055.639zm-33.041 28.874l4.766-27.085 3.765-.914-1.3 7.243 13.272 15.781-4.13 1.002-10.074-12.648-2.462 15.69-3.837.931zm-28.8-.589l6.578-.203-.476-15.412 3.571-.111.476 15.413 6.578-.204.105 3.384-16.728.516-.104-3.383zm-13.065 3.267l-3.514-.643 2.516-13.762-12.135 12.004-3.885-.711 3.382-18.497 3.515.642-2.516 13.762 12.135-12.003 3.884.71-3.382 18.498zm-54.525-27.564c-1.145-1.73-1.236-3.432-.272-5.105.776-1.347 1.903-2.173 3.381-2.479 1.465-.284 3.057.068 4.773 1.056l8.18 4.711-9.385 16.296-8.18-4.712c-1.629-.938-2.667-2.1-3.114-3.486-.48-1.376-.351-2.705.387-3.987a4.67 4.67 0 011.755-1.766c.698-.408 1.523-.584 2.475-.528zm2.76 3.195c-.804-.463-1.519-.629-2.144-.497-.626.132-1.145.556-1.558 1.273-.763 1.325-.33 2.457 1.299 3.396l4.791 2.759 2.402-4.172-4.79-2.759zm3.946-6.928c-.869-.5-1.627-.691-2.274-.572-.682.128-1.229.551-1.642 1.268-.388.673-.454 1.315-.198 1.926.222.619.768 1.18 1.637 1.68l4.823 2.778 2.478-4.302-4.824-2.778zm-38.925-9.269l12.755-13.817 2.625 2.423-5.23 5.665 7.185 6.633 5.23-5.665 2.625 2.423-12.754 13.818-2.626-2.424 5.23-5.665-7.185-6.632-5.23 5.665-2.625-2.424zm-11.798-12.109l-1.995-2.964 11.607-7.811-17.066-.302-2.204-3.276 15.6-10.498 1.995 2.964-11.607 7.811 17.066.302 2.205 3.276-15.601 10.498zm-6.45-34.623c.907-.707 1.446-1.564 1.616-2.574.16-1.032-.025-2.225-.557-3.579-.494-1.26-1.114-2.189-1.86-2.785-.77-.587-1.515-.738-2.239-.454-.63.247-1.057.738-1.28 1.472-.248.743-.106 1.792.426 3.145l1.195 3.046-2.87 1.127-1.141-2.906c-.476-1.214-1.037-1.99-1.682-2.33-.654-.362-1.296-.42-1.926-.173-.794.311-1.282.921-1.465 1.827-.192.884-.045 1.944.44 3.181.467 1.19 1.078 2.095 1.833 2.715.746.596 1.643.823 2.692.681l1.29 3.291c-1.869.383-3.577.044-5.126-1.019-1.571-1.053-2.746-2.571-3.525-4.555-.86-2.194-1.078-4.156-.653-5.885.403-1.72 1.374-2.882 2.915-3.487a4.352 4.352 0 012.418-.222c.818.164 1.59.588 2.317 1.273.01-2.24.948-3.726 2.816-4.459 1.61-.632 3.18-.44 4.71.576 1.52.992 2.748 2.679 3.682 5.06.843 2.147 1.032 4.173.568 6.079-.464 1.906-1.56 3.333-3.29 4.281l-1.304-3.326z"/></g><g class="aarm" clip-path="url(#aclip0)"><path d="M191.91 212.153v-27.546l9.069-9.031a14.175 14.175 0 001.047-18.898l-13.851-17.313a8.512 8.512 0 003.767-7.064v-5.676a2.838 2.838 0 00-2.838-2.838h-45.408a2.838 2.838 0 00-2.838 2.838v5.676c0 3.329 1.922 6.217 4.714 7.616a76.26 76.26 0 00-4.714 26.46v11.332c0 4.694 3.819 8.514 8.514 8.514a8.463 8.463 0 003.138-.602c.985 3.613 4.293 6.278 8.214 6.278a8.463 8.463 0 003.138-.602c.984 3.613 4.293 6.278 8.214 6.278a8.46 8.46 0 002.844-.491v15.069c0 4.694 3.82 8.514 8.514 8.514h.019c4.684 0 8.457-3.82 8.457-8.514zm-42.538-77.014a2.841 2.841 0 01-2.838-2.838v-2.838h39.732v2.838a2.841 2.841 0 01-2.838 2.838h-34.056zm34.062 79.852c-1.564 0-2.876-1.273-2.876-2.838v-34.416c0-1.567-1.232-2.838-2.8-2.838a2.838 2.838 0 00-2.838 2.838v11.199c-.002.042-.006.083-.006.125a2.842 2.842 0 01-2.838 2.838 2.841 2.841 0 01-2.838-2.838v-11.352a2.838 2.838 0 10-5.676 0v5.676a2.843 2.843 0 01-2.839 2.838 2.841 2.841 0 01-2.838-2.838v-5.676a2.837 2.837 0 10-5.676 0 2.841 2.841 0 01-2.838 2.838 2.841 2.841 0 01-2.838-2.838v-11.332a70.605 70.605 0 014.765-25.562h30.769l15.527 19.409a8.505 8.505 0 01-.628 11.339l-5.056 5.017c0-9.586.013-.075.013-10.224a2.838 2.838 0 00-2.838-2.838c-1.567 0-2.8 1.271-2.8 2.838l-.013 45.796c0 1.565-1.265 2.838-2.819 2.838l-.019.001z" fill="#1E252B"/></g><defs><clipPath id="aclip0"><path fill="#fff" transform="rotate(90 48.826 172.614)" d="M0 0h96.88v96.88H0z"/></clipPath></defs></svg><svg fill="none" viewBox="0 0 14 20" id="anchor-mobile" xmlns="http://www.w3.org/2000/svg"><path d="M10.904 18.242v-5.686l1.872-1.864a2.926 2.926 0 00.216-3.902l-2.86-3.574c.47-.316.779-.852.779-1.458V.586A.586.586 0 0010.325 0H.95a.586.586 0 00-.586.586v1.172c0 .687.397 1.283.973 1.572a15.743 15.743 0 00-.973 5.462v2.34a1.76 1.76 0 002.405 1.633 1.76 1.76 0 002.344 1.172 1.76 1.76 0 002.283 1.195v3.11c0 .97.788 1.758 1.757 1.758h.004a1.75 1.75 0 001.746-1.758zM2.122 2.344a.587.587 0 01-.586-.586v-.586H9.74v.586a.587.587 0 01-.586.586h-7.03zm7.032 16.484a.593.593 0 01-.593-.586v-7.104a.58.58 0 00-.579-.586.586.586 0 00-.585.586v2.312l-.002.025a.587.587 0 01-1.172 0v-2.343a.586.586 0 00-1.171 0v1.171a.587.587 0 01-1.172 0v-1.171a.586.586 0 00-1.172 0 .587.587 0 01-1.172 0v-2.34c0-1.813.331-3.587.984-5.277h6.352l3.205 4.007c.56.7.505 1.707-.13 2.34L10.905 10.9c0-1.98.003-.016.003-2.11a.586.586 0 00-.586-.587.58.58 0 00-.578.586l-.003 9.454a.585.585 0 01-.582.586h-.004z" fill="#1E252B"/></svg><svg fill="none" viewBox="0 0 22 14" id="arrow" xmlns="http://www.w3.org/2000/svg"><path d="M2 7h20M2 7l6-6M2 7l6 6" stroke="#1E252B" stroke-width="2"/></svg><svg fill="none" viewBox="0 0 200 21" id="logo" xmlns="http://www.w3.org/2000/svg"><path fill-rule="evenodd" clip-rule="evenodd" d="M198.952 14.148a6.958 6.958 0 01-3.072 2.527c-1.464.627-3.05.934-4.648.9h-3.196v3.415h-4.502v-3.406h-3.196a11.17 11.17 0 01-4.647-.9 6.968 6.968 0 01-3.098-2.526 6.627 6.627 0 01-1.033-3.643 6.635 6.635 0 011.033-3.648 6.997 6.997 0 013.098-2.526 11.251 11.251 0 014.647-.895h3.196V0h4.502v3.416h3.196a11.274 11.274 0 014.648.894 6.996 6.996 0 013.072 2.527 6.599 6.599 0 011.033 3.648 6.59 6.59 0 01-1.033 3.643v.02zm-15.413-6.786h-3.196c-1.384 0-2.437.283-3.098.844a2.787 2.787 0 00-.77 1.033 2.73 2.73 0 00-.216 1.261c-.03.43.044.862.215 1.26.171.397.435.75.771 1.03.687.56 1.74.848 3.098.848h3.196V7.362zm10.843.844c-.692-.56-1.74-.844-3.124-.844h-3.196v6.281h3.196c1.384 0 2.432-.288 3.124-.849.335-.28.598-.633.769-1.03a2.72 2.72 0 00.217-1.259 2.74 2.74 0 00-.218-1.26 2.802 2.802 0 00-.768-1.034v-.005zm-26.535 12.511l-1.549-4.37h-10.714l-1.575 4.37h-4.678L156.767.273h8.463l7.425 20.444h-4.808zm-5.948-16.609h-1.879l-3.052 8.408h7.952l-3.021-8.408zm-14.659 7.908a9.841 9.841 0 01-4.079.783h-5.814v7.918h-4.502V.273h10.326a9.761 9.761 0 014.079.788 6.223 6.223 0 012.706 2.234c.629.969.956 2.096.94 3.244a5.807 5.807 0 01-.94 3.239 6.274 6.274 0 01-2.706 2.238h-.01zm-1.735-7.23a3.926 3.926 0 00-2.442-.622h-5.716v4.77h5.711a3.91 3.91 0 002.442-.627 2.16 2.16 0 00.573-.801c.125-.307.177-.638.15-.967a2.055 2.055 0 00-.723-1.754h.005zm-27.046 15.931h-4.502V.273h16.161v3.946h-11.659v16.498zm-10.972-8.701a9.81 9.81 0 01-4.079.783h-5.82v7.918h-4.497V.273h10.327a9.749 9.749 0 014.079.788 6.24 6.24 0 012.711 2.234c.629.969.956 2.096.94 3.244a5.807 5.807 0 01-.94 3.239 6.286 6.286 0 01-2.711 2.238h-.01zm-1.73-7.23a3.946 3.946 0 00-2.442-.622h-5.726v4.77h5.716a3.885 3.885 0 002.437-.627c.253-.22.451-.493.577-.8.126-.307.178-.639.151-.968a2.083 2.083 0 00-.723-1.753h.01zM73.006.272h16.146v3.89H77.503v4.392h10.704v3.89H77.503v4.386h11.649v3.886H73.006V.273zm-6.16 19.075C65.136 20.444 62.823 21 59.978 21c-2.42.075-4.81-.535-6.883-1.758a7.517 7.517 0 01-2.311-2.157 7.336 7.336 0 01-1.2-2.896l-.15-.783h4.483l.17.419a4.758 4.758 0 002.117 2.526 7.748 7.748 0 003.774.83c1.668 0 2.954-.269 3.826-.8a2.1 2.1 0 00.847-.76c.205-.327.314-.701.315-1.084 0-.296-.078-.587-.228-.844a1.712 1.712 0 00-.629-.62c-.444-.304-1.41-.663-3.47-.663h-4.203V8.59h4.203a4.725 4.725 0 002.871-.743c.268-.175.488-.41.643-.686.154-.277.239-.585.245-.9a1.85 1.85 0 00-.288-1.011 1.907 1.907 0 00-.796-.702A7.32 7.32 0 0059.7 3.82a7.358 7.358 0 00-3.548.804 3.195 3.195 0 00-1.1.91 3.11 3.11 0 00-.583 1.288l-.108.505h-4.617l.155-.783a7.02 7.02 0 011.875-3.608c.976-1 2.181-1.76 3.516-2.218A13.112 13.112 0 0159.663 0c1.63-.027 3.253.212 4.802.708a7.77 7.77 0 013.336 2.056 4.678 4.678 0 011.255 3.224 4.841 4.841 0 01-.852 2.79 5.522 5.522 0 01-1.348 1.328 4.871 4.871 0 012.008 1.824c.48.782.721 1.68.698 2.592a5.39 5.39 0 01-.7 2.76 5.537 5.537 0 01-2.016 2.046v.02zM42.19 16.35H31.497l-1.55 4.366H25.25L32.685.273h8.447l7.44 20.444h-4.807l-1.575-4.366zM37.817 4.108h-1.88l-3.046 8.408h7.947l-3.021-8.408zM12.83 4.22h-2.504l-5.68 16.498H0L7.1.273h9.092l7.1 20.444h-4.828L12.831 4.22z" fill="#1E252B"/></svg><svg fill="none" viewBox="0 0 1080 1080" id="sign--sign-1" xmlns="http://www.w3.org/2000/svg"><path d="M540 1077.5A537.64 537.64 0 01330.78 44.74a537.642 537.642 0 01410.961-2.227 537.621 537.621 0 01292.469 288.709c55.42 131.17 56.53 278.965 3.1 410.955a537.639 537.639 0 01-288.09 293.083A534.17 534.17 0 01540 1077.5z" fill="#fff"/><path d="M540 5a535.142 535.142 0 01524.25 428.896 535.139 535.139 0 01-51.16 355.91A535.131 535.131 0 01748.24 1033a535.207 535.207 0 01-409.596 2.85A535.176 535.176 0 01331.76 47 531.53 531.53 0 01540 5zm0-5C241.77 0 0 241.77 0 540s241.77 540 540 540 540-241.77 540-540S838.23 0 540 0z" fill="#000"/><path d="M540 1051.5a511.614 511.614 0 01-323.687-115.66A511.635 511.635 0 0187.749 301.218 511.633 511.633 0 01340.9 68.7a511.634 511.634 0 01669.6 272.538c52.75 124.858 53.79 265.544 2.91 391.172A511.645 511.645 0 01739.1 1011.3a508.121 508.121 0 01-199.1 40.2z" fill="#fff"/><path d="M540 31a509.127 509.127 0 01322.105 115.097 509.095 509.095 0 01176.575 292.948A509.118 509.118 0 01738.12 1009a509.15 509.15 0 01-389.246 2.2A509.129 509.129 0 01341.88 71 505.759 505.759 0 01540 31zm0-5C256.13 26 26 256.13 26 540s230.13 514 514 514 514-230.13 514-514S823.87 26 540 26z" fill="#000"/><path d="M540 874c184.463 0 334-149.537 334-334S724.463 206 540 206 206 355.537 206 540s149.537 334 334 334z" fill="#7DA8DA" stroke="#000" stroke-width="5" stroke-miterlimit="10"/><path fill-rule="evenodd" clip-rule="evenodd" d="M558 430.73h-37.92l-86.6 256.35H363l107.91-317.63h138.16L717 687.08h-73.4L558 430.73z" fill="#000"/><path d="M159.06 634.87a26.997 26.997 0 01-.62 16 29.923 29.923 0 01-9.59 13l-1.5 1.2 4.89 19.78 3.49-2.15a48.106 48.106 0 0014.56-13.7 45.984 45.984 0 007.44-18.28 50.717 50.717 0 00-13.16-42.94 48.102 48.102 0 00-21.65-13 51.324 51.324 0 00-48.7 12 48.264 48.264 0 00-13.11 21.6 50.773 50.773 0 008.35 44.13 46.004 46.004 0 0015.1 12.71 47.861 47.861 0 0019.29 5.39l4.1.28-4.89-19.78-1.88-.36a30.003 30.003 0 01-14.52-7 26.902 26.902 0 01-8-13.92 28.86 28.86 0 01.34-15.7 29.692 29.692 0 018.3-13.13 33.547 33.547 0 0130.7-7.58 29.736 29.736 0 0113.48 7.75 28.829 28.829 0 017.58 13.7zm89.59 142.37l-60.82 8.37 27.55-55.94-13-18.59-36.76 77.01-24.95 3.08 12.42 17.76 107.89-14.06-12.33-17.63zm85.47 75.13l-35.87-24.53-54.45 79.63 36 24.6a37.428 37.428 0 0016.2 6.63c1.326.171 2.662.257 4 .26a26.136 26.136 0 0011.07-2.38 28.221 28.221 0 0011.45-9.93 25.305 25.305 0 004.6-13.24 25.614 25.614 0 00-1.45-9.6 23.161 23.161 0 008.56-2.29 26.057 26.057 0 0010-8.88 27.219 27.219 0 004.87-13.71 26.137 26.137 0 00-3.35-14.32 35.848 35.848 0 00-11.63-12.24zm-10.63 14.4c9.25 6.32 7.32 11.68 4.61 15.65-2.15 3.15-4.52 4.88-7.25 5.3-2.73.42-6-.61-9.58-3.07l-19.72-13.48 12.23-17.88 19.71 13.48zm-16.85 48.41c-2.14 3.12-4.52 4.8-7.28 5.13-2.76.33-6.25-.79-10-3.37l-19.82-13.56 12.3-18 19.8 13.62c3.79 2.6 6.12 5.3 6.9 8 .74 2.55.12 5.23-1.9 8.18zm82.67 70.9l64.62 16.72 4.54-17.57-46.29-11.98 5.26-20.34 42.54 11 4.54-17.57-42.54-11 5.26-20.35 46.3 11.98 4.54-17.57-64.61-16.71-24.16 93.39zm210.74-77.91l4.11 38.81-45.44 4.82-4.12-38.82-18.82 2 10.17 95.93 18.82-1.99-4.11-38.82 45.44-4.81 4.11 38.81 18.82-1.99-10.16-95.94-18.82 2zm133.55-50.26l-9.97 80.52-31.26-58.48-16.69 8.93 45.48 85.07 16.56-8.85 10.52-83.06 32.19 60.23 16.69-8.93-45.48-85.07-18.04 9.64zm137.27-42.69a36.189 36.189 0 008.26-15.28 27.001 27.001 0 00-.69-15.39 31.824 31.824 0 00-22.85-19.81 26.999 26.999 0 00-15.33 1.49 36.172 36.172 0 00-14 10.34l-27.88 32.15 72.88 63.21 12.4-14.3-28.31-24.56 15.52-17.85zm-46.34-8.91l15.23-17.55c2.86-3.31 5.74-5.16 8.53-5.5 2.79-.34 5.47.74 8.4 3.29 2.93 2.55 4.42 5.14 4.5 7.91.08 2.77-1.33 5.95-4.19 9.25l-15.23 17.55-17.24-14.95zm83.025-193.993l-6.116 17.904 91.291 31.185 6.116-17.904-91.291-31.185zM975.2 668.09a31.84 31.84 0 00-13.077-8.498 31.838 31.838 0 00-15.543-1.272 26.934 26.934 0 00-13.64 7.14 35.988 35.988 0 00-9.05 14.84l-7.64 22.35-35.47-12.11-6.11 17.91L966 739.63l13.75-40.27a36.156 36.156 0 001.92-17.28 27.007 27.007 0 00-6.47-13.99zm-41.89 40.39l7.5-22c1.42-4.15 3.39-6.94 5.85-8.31 2.46-1.37 5.34-1.36 9-.11s6 3.11 7.14 5.65c1.14 2.54 1 6-.41 10.14l-7.51 22-21.57-7.37zM247.43 309a36.18 36.18 0 007.23-15.81 26.998 26.998 0 00-1.72-15.3 31.824 31.824 0 00-24.12-18.25 27.002 27.002 0 00-15.19 2.51 36.165 36.165 0 00-13.24 11.25l-14.26 18.84-15.42-11.66 30.42-40.2-14.47-11-41.84 55.29 76.93 58.21L247.43 309zm-28.73 7.89l-18.2-13.77 14-18.53c2.64-3.5 5.39-5.54 8.15-6.06 2.76-.52 5.51.38 8.6 2.72 3.09 2.34 4.75 4.84 5 7.6s-.93 6-3.57 9.51l-13.98 18.53zm93.01-186.99l-4.99 80.98-34.8-56.43-16.11 9.93 50.64 82.11 15.97-9.85 5.39-83.55 35.84 58.13 16.11-9.94-50.64-82.11-17.41 10.73zm177.05-9.36a24.735 24.735 0 004.49-7.57 25.001 25.001 0 001-13.39 23.83 23.83 0 00-7.79-13.83 32.002 32.002 0 00-15.38-7.06 54.32 54.32 0 00-20.18.37 47.704 47.704 0 00-17.17 6.75 37 37 0 00-12.34 13 35.165 35.165 0 00-4.39 18.11l.06 3.56 19-3.59v-2.49a14.856 14.856 0 014.85-11.58 26.528 26.528 0 0113.37-6.33c6.23-1.18 11.28-1 15 .6a9.335 9.335 0 015.95 7.39 9.86 9.86 0 01-2.2 8.25c-2.11 2.68-5.71 4.52-10.7 5.47l-17.18 3.23 3.29 17.46 17.18-3.24c6.48-1.22 11.42-1.09 14.31.4a8.501 8.501 0 014.82 6.35 10.347 10.347 0 01-3.06 9.66c-3 3.07-7.88 5.27-14.51 6.52-6.09 1.15-11.36.84-15.69-.9s-7.84-5.11-10.73-10.1l-1.07-1.84-18.52 3.49 1.22 3.33c3.52 9.59 9.75 16.53 18.54 20.64a43.774 43.774 0 0018.77 4 58.316 58.316 0 0010.79-1.05c11.61-2.19 20.53-6.57 26.52-13 6.23-6.71 8.5-14.85 6.74-24.18-1.68-9.03-6.75-15.21-14.99-18.43zm147.08 1.35l-44.99-8.05 6.88-38.42-18.63-3.34-17 94.96 18.63 3.34 6.88-38.42 44.98 8.05-6.88 38.42 18.63 3.33 17-94.96-18.63-3.33-6.87 38.42zM765.95 222.6l-41.15-24.36 10.7-18.08 37.82 22.38 9.24-15.61-37.82-22.39 10.71-18.08 41.15 24.36 9.24-15.62-57.43-33.99-49.14 83.01 57.44 34 9.24-15.62zm58.43 83.66A48.905 48.905 0 00840.12 319a46.005 46.005 0 0019.1 4.93h1.79a48.259 48.259 0 0017.99-3.49l3.81-1.52-13-15.73-1.86.49a29.86 29.86 0 01-16.11 0 26.887 26.887 0 01-13.26-9.08 28.781 28.781 0 01-6.45-14.27 29.673 29.673 0 011.87-15.48 33.514 33.514 0 0124.39-20.09c5.178-1 10.529-.6 15.5 1.16 5 1.795 9.405 4.937 12.73 9.08a26.94 26.94 0 016.38 14.73 30 30 0 01-3 15.83l-.83 1.72 13 15.73 2.23-3.46a48.122 48.122 0 007.18-18.69 46.009 46.009 0 00-1.19-19.7 48.813 48.813 0 00-9.46-17.88 49.34 49.34 0 00-21-15.16 48.331 48.331 0 00-25.16-2.38 51.415 51.415 0 00-38.77 31.9 48.291 48.291 0 00-2.48 25.15 49.243 49.243 0 0010.86 23.47z" fill="#000"/></svg><svg fill="none" viewBox="0 0 1080 1080" id="sign--sign-2" xmlns="http://www.w3.org/2000/svg"><path d="M540 1077.5a537.681 537.681 0 01-340.137-121.543A537.645 537.645 0 0164.765 289.079 537.643 537.643 0 01330.78 44.739a537.64 537.64 0 01410.96-2.226 537.623 537.623 0 01292.47 288.709c55.42 131.17 56.53 278.965 3.1 410.955a537.646 537.646 0 01-288.09 293.083A534.17 534.17 0 01540 1077.5z" fill="#fff"/><path d="M540 5a535.142 535.142 0 01524.25 428.896 535.139 535.139 0 01-51.16 355.91A535.131 535.131 0 01748.24 1033a535.207 535.207 0 01-409.596 2.85A535.176 535.176 0 01331.76 47 531.53 531.53 0 01540 5zm0-5C241.77 0 0 241.77 0 540s241.77 540 540 540 540-241.77 540-540S838.23 0 540 0z" fill="#000"/><path d="M540 1051.5a511.614 511.614 0 01-323.687-115.66A511.635 511.635 0 0187.749 301.218 511.631 511.631 0 01340.9 68.7a511.634 511.634 0 01669.6 272.538c52.75 124.858 53.79 265.544 2.91 391.172A511.645 511.645 0 01739.1 1011.3a508.121 508.121 0 01-199.1 40.2z" fill="#fff"/><path d="M540 31a509.127 509.127 0 01322.105 115.097 509.095 509.095 0 01176.575 292.948A509.118 509.118 0 01738.12 1009a509.15 509.15 0 01-389.246 2.2A509.129 509.129 0 01341.88 71 505.759 505.759 0 01540 31zm0-5C256.13 26 26 256.13 26 540s230.13 514 514 514 514-230.13 514-514S823.87 26 540 26z" fill="#000"/><path d="M540 874c184.463 0 334-149.537 334-334S724.463 206 540 206 206 355.537 206 540s149.537 334 334 334z" fill="#FFDE30" stroke="#000" stroke-width="5" stroke-miterlimit="10"/><path fill-rule="evenodd" clip-rule="evenodd" d="M558 430.73h-37.92l-86.6 256.35H363l107.91-317.63h138.16L717 687.08h-73.4L558 430.73z" fill="#000"/><path d="M217.21 761.52a27.191 27.191 0 003.75-15 36.272 36.272 0 00-5.08-16.65l-20.95-37.1-84.11 47.52 9.31 16.5 32.69-18.47L164.46 759a36.107 36.107 0 0011.64 12.9 26.998 26.998 0 0014.74 4.51h.1a31.912 31.912 0 0026.27-14.89zm-28.78-43.27l11.45 20.26c2.15 3.82 2.93 7.15 2.32 9.9-.61 2.75-2.54 4.91-5.93 6.83-3.39 1.92-6.34 2.43-9 1.58-2.66-.85-5.17-3.25-7.32-7.06l-11.45-20.27 19.93-11.24zm108.24 131.6l12.34-13.33-49.05-45.4-65.62 70.89 49.05 45.4 12.34-13.33-35.15-32.53 14.3-15.45 32.3 29.89 12.34-13.33-32.3-29.89 14.3-15.45 35.15 32.53zm108.09 39.01l-56.94 19.23 17.06-37.41-17.23-7.86-40.09 87.89 17.24 7.86 13.38-29.33 12.84-4.29 13.68 51.82 22.52 10.26-18.3-68.25 58.31-19.67-22.47-10.25zm65.51 54.79c-1.08 12.86-2.4 22.55-3.94 28.82-1.77 7.24-3.66 10.1-4.94 11.22-1.71 1.51-4.11 2.1-7.33 1.84a42.818 42.818 0 01-5-.91l-3.35-.74-1.54 18.48 2.63.52c3.22.62 5.55 1 7.12 1.13 8.6.72 15.48-1.38 20.41-6.23 4.68-4.61 8.06-11.19 10-19.57 1.9-8 3.41-18.54 4.48-31.44l1.57-18.68 36.33 3-6.52 77.9 18.88 1.58 8.05-96.26-74-6.19-2.85 35.53zm155.38-41.94l-16.87 104.52 20-5.36 3.27-22.31 43.45-11.64 14 17.7 20.76-5.56L643.4 897l-17.75 4.71zm37.85 49.89l-28.56 7.65 5.5-36.79 23.06 29.14zm124.99-134.31l9.77 69.69L734.14 858l-18.43 13.8 57.91 77.32 15.16-11.35-39.1-52.21 71.17 32.22-11.01-77.91 39.41 52.61 15.16-11.35-57.91-77.33-18.01 13.49zM861 725.67l-9.62 15.67L911 828.81l10.84-17.65-13-18.45 23.54-38.33 22.32 3.22 11.3-18.31-105-13.62zm36.71 51l-21.31-30.48 36.78 5.29-15.47 25.19zM215.19 353.75a37.508 37.508 0 004.91-16.85 27.172 27.172 0 00-3.68-14.78 28.251 28.251 0 00-11.08-10.36 24.767 24.767 0 00-23.07-.75 23.481 23.481 0 00-3.17-8.29 26.126 26.126 0 00-9.9-9 27.218 27.218 0 00-14.2-3.45 26.087 26.087 0 00-13.91 4.82 36.1 36.1 0 00-11 12.83l-20.7 38.27 85 45.95 20.8-38.39zm-46.7 2.83l11.44-21.16c2.19-4.05 4.64-6.65 7.28-7.72 2.48-1 5.21-.66 8.36 1.05 3.33 1.8 5.25 4 5.87 6.71.62 2.71-.14 6.31-2.31 10.34L187.69 367l-19.2-10.42zm-34.28-18.53L145.59 317c2.12-3.92 4.47-6.41 7-7.37 2.35-.92 5-.54 8.14 1.15 3.37 1.82 5.34 4 6 6.67.66 2.67 0 6-2.06 9.87l-11.37 21.05-19.09-10.32zm140.301-190.105l-14.481 12.207 62.261 73.859 14.481-12.207-62.261-73.859zM291.54 260a36.307 36.307 0 0010.56-13.83 27.002 27.002 0 001.7-15.33 31.916 31.916 0 00-19.52-23.15 26.997 26.997 0 00-15.39-.92 36.314 36.314 0 00-15.42 8.07L235.38 230l-24.2-28.7-14.48 12.25 62.3 73.86L291.54 260zm-12-13.64l-17.79 15L247 243.83l17.8-15c3.35-2.83 6.49-4.21 9.3-4.12 2.81.09 5.29 1.59 7.8 4.57 2.51 2.98 3.57 5.77 3.22 8.53-.35 2.76-2.24 5.68-5.59 8.5l.01.05zm167.56-99.68a24.752 24.752 0 00-16.43-16.23 23.207 23.207 0 003.3-8.23 26 26 0 00-1.13-13.34 27.217 27.217 0 00-8.06-12.14 26.148 26.148 0 00-13.49-5.91 36.052 36.052 0 00-16.77 2l-41.19 14 31.17 91.43 41.3-14.08a37.466 37.466 0 0015.05-9 26.997 26.997 0 007.33-13.34 28.248 28.248 0 00-1.08-15.16zm-32.2-22c-1.32 2.47-4.08 4.44-8.22 5.85L384 138.2l-7-20.53 22.68-7.67c10.63-3.63 13.77 1.14 15.32 5.69 1.23 3.57 1.2 6.52-.1 8.95v.04zm-18.25 50.52l-7-20.66 22.76-7.76c4.36-1.48 7.92-1.73 10.59-.71 2.5 1 4.27 3.05 5.43 6.44 1.22 3.59 1.14 6.5-.26 8.92s-4.38 4.54-8.71 6l-22.81 7.77zm125.23-26.19l-.16-21.05 44.01-.34-.15-18.17-44 .34-.17-21.05 47.89-.37-.14-18.17-66.83.52.75 96.6 66.83-.52-.14-18.16-47.89.37zm170.78 14.08a29.9 29.9 0 01-13.72 8.51 26.861 26.861 0 01-16.07-.7 28.865 28.865 0 01-13-8.71 29.869 29.869 0 01-6.63-14.1 33.601 33.601 0 0110.09-30 29.805 29.805 0 0113.79-7.22 28.791 28.791 0 0115.67.94A26.869 26.869 0 01696 121a30.006 30.006 0 015.76 15l.21 1.9 19.33 6.5.06-4.11a48.004 48.004 0 00-3.79-19.69 46.202 46.202 0 00-11.45-16.11 50.794 50.794 0 00-43.35-12 48.281 48.281 0 00-22.64 11.3 51.448 51.448 0 00-16 47.61 48.247 48.247 0 0011.21 22.69A51.173 51.173 0 00672.87 191c1.41 0 2.83-.06 4.24-.19a46.265 46.265 0 0018.89-5.9 48.236 48.236 0 0014.92-13.4l2.43-3.31-19.35-6.5-1.34 1.39zm82.69 48.98l13.5-.98.44 53.6 19.27 15.51-.84-70.66 61.37-4.62-19.23-15.49-59.93 4.53 25.79-32.02-14.76-11.88-60.59 75.24 14.76 11.88 20.22-25.11zm69.37 117.03l83.55 7.23-58.99 34.61 9.59 16.34 83.31-48.89-10.36-17.66-80.98-6.78 57.28-33.61-9.59-16.34-83.32 48.9 9.51 16.2z" fill="#000100"/></svg><svg fill="none" viewBox="0 0 1080 1080" id="sign--sign-3" xmlns="http://www.w3.org/2000/svg"><path d="M540 1077.5a537.681 537.681 0 01-340.137-121.543A537.645 537.645 0 0164.765 289.079 537.643 537.643 0 01330.78 44.739a537.64 537.64 0 01410.96-2.226 537.623 537.623 0 01292.47 288.709c55.42 131.17 56.53 278.965 3.1 410.955a537.646 537.646 0 01-288.09 293.083A534.17 534.17 0 01540 1077.5z" fill="#fff"/><path d="M540 5a535.142 535.142 0 01524.25 428.896 535.139 535.139 0 01-51.16 355.91A535.131 535.131 0 01748.24 1033a535.207 535.207 0 01-409.596 2.85A535.176 535.176 0 01331.76 47 531.53 531.53 0 01540 5zm0-5C241.77 0 0 241.77 0 540s241.77 540 540 540 540-241.77 540-540S838.23 0 540 0z" fill="#000"/><path d="M540 1051.5a511.614 511.614 0 01-323.687-115.66A511.635 511.635 0 0187.749 301.218 511.631 511.631 0 01340.9 68.7a511.634 511.634 0 01669.6 272.538c52.75 124.858 53.79 265.544 2.91 391.172A511.645 511.645 0 01739.1 1011.3a508.121 508.121 0 01-199.1 40.2z" fill="#fff"/><path d="M540 31a509.127 509.127 0 01322.105 115.097 509.095 509.095 0 01176.575 292.948A509.118 509.118 0 01738.12 1009a509.15 509.15 0 01-389.246 2.2A509.129 509.129 0 01341.88 71 505.759 505.759 0 01540 31zm0-5C256.13 26 26 256.13 26 540s230.13 514 514 514 514-230.13 514-514S823.87 26 540 26z" fill="#000"/><path d="M540 874c184.463 0 334-149.537 334-334S724.463 206 540 206 206 355.537 206 540s149.537 334 334 334z" fill="#EA5C47" stroke="#000" stroke-width="5" stroke-miterlimit="10"/><path fill-rule="evenodd" clip-rule="evenodd" d="M558 430.73h-37.92l-86.6 256.35H363l107.91-317.63h138.16L717 687.08h-73.4L558 430.73z" fill="#000"/><path d="M183.16 648.45l-66.92-20.76 53.3-45.47-4.62-22.48-94.27 19.38 3.81 18.5 63.6-13.07-59.22 50.44 74.86 23.13-64.1 13.18 3.81 18.5 94.27-19.38-4.52-21.97zm36.48 79.98l-104.57 13.83 10.85 17.58 22.23-3.27 23.53 38.1-12.88 18.41 11.26 18.24L229.27 744l-9.63-15.57zm-52.22 25.36l36.58-5.28-21.17 30.3-15.41-25.02zM302 824.29A49.179 49.179 0 00278.75 813a48.103 48.103 0 00-25.13 2 51.283 51.283 0 00-32.55 38 48.13 48.13 0 001.9 25.13 50.615 50.615 0 0032.38 31 45.869 45.869 0 0019.65 1.56 47.866 47.866 0 0018.78-6.81l3.49-2.16-15.44-13.23-1.75.8a29.71 29.71 0 01-15.85 2.71 26.768 26.768 0 01-14.59-6.63 28.765 28.765 0 01-8.8-12.91A29.729 29.729 0 01240 857a33.469 33.469 0 0120.49-23.94 29.77 29.77 0 0115.43-1.53 28.776 28.776 0 0114.08 6.72 26.813 26.813 0 018.8 13.38 29.699 29.699 0 01-.27 16.07l-.52 1.85 15.45 13.22 1.6-3.78a47.933 47.933 0 003.83-19.61 46 46 0 00-4.56-19.15A48.69 48.69 0 00302 824.29zm43.33 57l29.5 12.97-31.33 71.28 17.29 7.61 31.34-71.28 29.5 12.97 7.4-16.83-76.3-33.54-7.4 16.82zm101.37 119.3l65.96 9.11 2.48-17.95-47.25-6.52 2.87-20.75 43.42 6 2.48-17.95-43.42-6 2.86-20.74 47.25 6.52 2.48-17.94-65.96-9.12-13.17 95.34zm187.86-82.8A27.003 27.003 0 00622 909a36.244 36.244 0 00-17.29-1.24l-42 6.22 14.09 95.2 18.69-2.76-5.48-37 23.3-3.45a36.084 36.084 0 0016.2-6.19 27 27 0 009.47-12.1 31.771 31.771 0 00-4.42-29.85v-.04zm-47.18 33.8l-3.33-22.51 22.95-3.39c4.31-.64 7.69-.17 10 1.38 2.31 1.55 3.65 4.12 4.21 7.95s0 6.75-1.74 8.9c-1.74 2.15-4.86 3.64-9.17 4.28l-22.92 3.39zm186.41-42.47L755.48 918v1.92a29.8 29.8 0 01-3.84 15.6 26.801 26.801 0 01-11.93 10.69 28.764 28.764 0 01-15.36 2.88 29.605 29.605 0 01-14.52-5.42 33.446 33.446 0 01-13.7-28.38 29.63 29.63 0 014.87-14.78 28.705 28.705 0 0111.8-10.23 26.722 26.722 0 0115.79-2.69 29.769 29.769 0 0114.62 6.69l1.48 1.22 18.31-8.84-2.83-3a47.882 47.882 0 00-16.41-11.39 45.906 45.906 0 00-19.38-3.5 50.64 50.64 0 00-39.21 21.67 48.176 48.176 0 00-8.26 23.82 49.57 49.57 0 005 25.37 49.465 49.465 0 0016.75 19.7 48.129 48.129 0 0023.79 8.35c1.2.09 2.41.13 3.61.13a49.575 49.575 0 0021.71-5.11 48.7 48.7 0 0016-12.25 45.993 45.993 0 009.3-17.35 47.83 47.83 0 001.3-19.93l-.58-4.05zm60.53-133.29l-17.82 17-3.33 59.74-28.25-29.62-13.67 13.04 66.42 69.64 13.67-13.03-22.17-23.25.8-13.44 52.97 6.55 17.85-17.03-69.9-8.38 3.43-61.22zM864.6 726l64.15 83.73 9.82-18.18-13.92-17.63 21.29-39.4 22.37 2 10.19-18.86-105.19-7.76-8.71 16.1zm25.19 3.5l36.81 3.23-14 25.88-22.81-29.11zm115.15-117.61l3.57-18.55L914 575.15l-8 41.69a36.168 36.168 0 00.5 17.33 27.002 27.002 0 008.28 12.94 29.996 29.996 0 0014.1 6.59 29.002 29.002 0 0020.21-3 27.699 27.699 0 0011.18-12l32.29 37.66 4.43-23-31.18-35.8 2.44-12.71 36.69 7.04zM941.67 633c-2.33 1.75-5.31 2.24-9.12 1.51-3.81-.73-6.39-2.3-7.91-4.79-1.52-2.49-1.92-6-1.1-10.3l4.31-22.38 23 4.43-4.31 22.37c-.85 4.29-2.48 7.38-4.87 9.16zM190.48 418.67l-58.91-27.32 77.6-5.33-46.42-63.12 59.37 27.53 7.95-17.14-87.31-40.49-9.44 20.35 41.45 56.49-69.9 4.86-9.65 20.82 87.31 40.49 7.95-17.14zM215 207.9l34.57 99.66 15-14.17-7.57-21.11 32.6-30.71 20.61 8.92 15.61-14.7-97.42-40.45L215 207.9zm22.81 11.24l33.94 14.66-21.37 20.2-12.57-34.86zM393.13 96.18l-22.42 10.21-22.75 55.34L331 124.48l-17.19 7.83 39.88 87.58 17.2-7.83-13.32-29.23 5.17-12.43 47.88 23.57 22.46-10.23-63.28-30.85 23.33-56.71zm88.7 60.96l-2.56-20.79 43.5-5.34-2.21-17.99-43.5 5.35-2.56-20.78 47.35-5.82-2.22-17.99-66.09 8.13 11.75 95.52 66.09-8.13-2.21-17.98-47.34 5.82zm92.91-64.82l31.77 5.4-13.05 76.76 18.63 3.17 13.04-76.77 31.78 5.4 3.07-18.11-82.17-13.97-3.07 18.12zm136.43 75.95l40.36 21.16-18.08 34.48 16.73 8.77 44.69-85.24-16.73-8.77-18.08 34.48-40.36-21.16 18.08-34.48-16.73-8.77-44.69 85.24 16.73 8.77 18.08-34.48zm79.57 97.63l21.18-7.49 30.42 32.87-9.09 20.54 14.56 15.72 41.3-97.05L876.66 217l-99.95 33.7 14.03 15.2zM830.3 252l34.92-12.22-15 33.8L830.3 252zm27.63 91.89l9.65 21.32 46.12 11.25 5.3 11.79-34 15.41 7.78 17.22 87.69-39.68L963 342.53a36.183 36.183 0 00-10.41-13.88 26.9 26.9 0 00-14.23-5.78 30.008 30.008 0 00-15.36 2.75 28.92 28.92 0 00-14.77 14.11A27.502 27.502 0 00906 356l-48.07-12.11zm77.26 37.05l-9.39-20.76c-1.8-4-2.25-7.43-1.33-10.27.92-2.84 3-4.9 6.58-6.5a13.799 13.799 0 015.65-1.41 8.835 8.835 0 013.57.73c2.74 1.19 5 3.8 6.84 7.78l9.39 20.76-21.31 9.67z" fill="#000"/></svg><svg fill="none" viewBox="0 0 1080 1080" id="sign--sign-4" xmlns="http://www.w3.org/2000/svg"><path d="M540 1077.5a537.681 537.681 0 01-340.137-121.543A537.645 537.645 0 0164.765 289.079 537.643 537.643 0 01330.78 44.739a537.64 537.64 0 01410.96-2.226 537.623 537.623 0 01292.47 288.709c55.42 131.17 56.53 278.965 3.1 410.955a537.646 537.646 0 01-288.09 293.083A534.17 534.17 0 01540 1077.5z" fill="#fff"/><path d="M540 5a535.142 535.142 0 01524.25 428.896 535.139 535.139 0 01-51.16 355.91A535.131 535.131 0 01748.24 1033a535.207 535.207 0 01-409.596 2.85A535.176 535.176 0 01331.76 47 531.53 531.53 0 01540 5zm0-5C241.77 0 0 241.77 0 540s241.77 540 540 540 540-241.77 540-540S838.23 0 540 0z" fill="#000"/><path d="M540 1051.5a511.614 511.614 0 01-323.687-115.66A511.635 511.635 0 0187.749 301.218 511.632 511.632 0 01340.9 68.7a511.634 511.634 0 01669.6 272.538c52.75 124.858 53.79 265.544 2.91 391.172A511.645 511.645 0 01739.1 1011.3a508.121 508.121 0 01-199.1 40.2z" fill="#fff"/><path d="M540 31a509.127 509.127 0 01322.105 115.097 509.095 509.095 0 01176.575 292.948A509.118 509.118 0 01738.12 1009a509.15 509.15 0 01-389.246 2.2A509.129 509.129 0 01341.88 71 505.759 505.759 0 01540 31zm0-5C256.13 26 26 256.13 26 540s230.13 514 514 514 514-230.13 514-514S823.87 26 540 26z" fill="#000"/><path d="M540 874c184.463 0 334-149.537 334-334S724.463 206 540 206 206 355.537 206 540s149.537 334 334 334z" fill="#C6AFD5" stroke="#000" stroke-width="5" stroke-miterlimit="10"/><path fill-rule="evenodd" clip-rule="evenodd" d="M558 430.73h-37.92l-86.6 256.35H363l107.91-317.63h138.16L717 687.08h-73.4L558 430.73z" fill="#000"/><path d="M181.74 738.22a30.25 30.25 0 006.64-16.22 41.436 41.436 0 00-3-19.58l-4.69-12.06 15.09-5.87-6.87-17.67-15.1 5.88-4.7-12.06a41.4 41.4 0 00-11-16.47 30.302 30.302 0 00-15.86-7.45 36.304 36.304 0 00-31.84 12.4 30.188 30.188 0 00-6.65 16.21 41.41 41.41 0 003 19.58l4.68 12.09-15.09 5.88 6.88 17.66 15.09-5.87L123 726.7a41.397 41.397 0 0011 16.46 30.227 30.227 0 0015.86 7.45 32.56 32.56 0 004.51.32 35.461 35.461 0 0013-2.54 34.464 34.464 0 0014.37-10.17zm-25.13-58.83l-28 10.89-4.69-12.06c-2-5.2-2.34-9.63-.92-13.16 1.42-3.53 4.3-6.08 8.85-7.85a18.13 18.13 0 016.57-1.38 12.08 12.08 0 015.28 1.17c3.43 1.65 6.2 5.12 8.22 10.32l4.69 12.07zm12.49 42.88c-1.41 3.52-4.3 6.08-8.85 7.85-4.55 1.77-8.42 1.84-11.83.2-3.41-1.64-6.19-5.11-8.22-10.31L135.51 708l28-10.9 4.7 12.06c2 5.15 2.31 9.58.89 13.11zm97.04 71.47a51.003 51.003 0 00-22.07-14.27 48.263 48.263 0 00-25.55-1.22 51.077 51.077 0 00-37 34.12 48.337 48.337 0 00-.83 25.57 52.786 52.786 0 0034.51 37.41 50.22 50.22 0 0062.54-32.9 48.348 48.348 0 00.84-25.57 51.072 51.072 0 00-12.44-23.14zm-6.82 42.51a32.72 32.72 0 01-23.25 21.45 30.525 30.525 0 01-15.82-.51 30.603 30.603 0 01-18.214-15.068A30.58 30.58 0 01200 818.57a32.72 32.72 0 0123.25-21.45 30.609 30.609 0 0136.1 39.13h-.03zm54.04 27.9l28.33 15.71-37.95 68.46 16.58 9.19 37.96-68.46 28.33 15.71 8.95-16.13-73.26-40.61-8.94 16.13zM495 918.45a52.737 52.737 0 00-50-9.36 48.205 48.205 0 00-21.21 14.3 51.064 51.064 0 00-9.25 49.46 48.216 48.216 0 0014.62 21 51.101 51.101 0 0023.78 11.15c3.298.62 6.645.93 10 .94 5.526.01 11.014-.9 16.24-2.7a48.275 48.275 0 0021.22-14.3 51.09 51.09 0 009.24-49.46A48.248 48.248 0 00495 918.45zm-27.21 7a30.257 30.257 0 0123.34 20 32.725 32.725 0 01-5.81 31.09A30.599 30.599 0 01433 966.8a32.725 32.725 0 015.81-31.09 30.355 30.355 0 0113-9.05 29.533 29.533 0 0110.08-1.76c1.983.006 3.961.194 5.91.56l-.01-.01zM632 952.75a24.604 24.604 0 004.79-7.42A25.009 25.009 0 00638.3 932a23.882 23.882 0 00-7.3-14.19 32.002 32.002 0 00-15.14-7.67 54.788 54.788 0 00-20.23-.39 48.004 48.004 0 00-17.46 6.11 37.007 37.007 0 00-12.86 12.61 35.203 35.203 0 00-5.06 17.92l-.08 3.56 19.18-2.87.09-2.49a14.94 14.94 0 015.31-11.42 26.583 26.583 0 0113.64-5.84c6.29-.94 11.34-.55 15 1.18a9.332 9.332 0 015.69 7.63 9.882 9.882 0 01-2.53 8.19c-2.21 2.61-5.89 4.32-10.93 5.07l-17.3 2.6 2.63 17.6 17.32-2.6c6.54-1 11.5-.65 14.33 1a8.517 8.517 0 014.59 6.55 10.338 10.338 0 01-3.43 9.56c-3.13 3-8.1 5-14.8 6-6.14.92-11.42.41-15.68-1.5s-7.67-5.41-10.38-10.53l-1-1.88-18.68 2.8 1.09 3.37c3.16 9.73 9.14 16.93 17.79 21.38a44.496 44.496 0 0020.66 4.77c2.963-.01 5.921-.24 8.85-.68 11.7-1.75 20.81-5.81 27.06-12 6.49-6.48 9.08-14.55 7.67-24-1.34-9.17-6.17-15.55-14.34-19.09zm132.07-80.51a48.21 48.21 0 00-24.49-7.38 52.745 52.745 0 00-45 23.74 48.42 48.42 0 00-7.78 24.4 51.094 51.094 0 0023.47 44.51 48.262 48.262 0 0024.49 7.38h1.5a52.805 52.805 0 0043.53-23.76 48.156 48.156 0 007.75-24.38 51.074 51.074 0 00-23.47-44.51zm-28 73.83a30.309 30.309 0 01-15.08-4.8 32.725 32.725 0 01-14.75-28 30.914 30.914 0 019.382-20.957 30.914 30.914 0 0121.248-8.703h1.39a30.439 30.439 0 0115.07 4.8 32.708 32.708 0 0110.994 12.095 32.707 32.707 0 013.766 15.905 30.892 30.892 0 01-32 29.63l-.02.03zm98.2-172.25L863.36 800l-30.67 34.07-29.09-26.18-12.69 14.09 71.89 64.7 12.69-14.09-29.09-26.18 30.66-34.07 29.09 26.18 12.69-14.09-71.89-64.71-12.68 14.1zm140.09-89.13A31.891 31.891 0 00946 673.91a27.052 27.052 0 00-13.92 6.67 36.461 36.461 0 00-9.58 14.56l-8.43 22.15L879 703.92l-6.74 17.72L962.63 756l15.17-39.87a36.302 36.302 0 002.52-17.24 26.997 26.997 0 00-5.96-14.2zm-43.38 39l8.29-21.79c1.56-4.1 3.63-6.84 6.14-8.13 2.51-1.29 5.41-1.18 9.05.21 3.64 1.39 5.94 3.32 7 5.91 1.06 2.59.8 6.06-.76 10.16l-8.29 21.78-21.43-8.14zm-22.53-97.323l-6.742 17.721 90.398 34.393 6.742-17.72-90.398-34.394zM146 451.13a49.054 49.054 0 0111 7.46L153.63 469l36 11.7 5.69-17.54-18.49-6 20-61.6 18.49 6 5.7-17.54-36-11.7-3.2 9.86L107.37 358l-23.15 71.29 33.92 11c12.6 4.1 21.96 7.71 27.86 10.84zm-38.39-34.06l11.47-35.34L176 400.21l-12.88 39.66c-8.86-6.05-22.16-12-39.62-17.64l-15.89-5.16zM257.32 297.3l-14.85-10.49-27.68 39.15-17.22-12.18 25.44-35.97-14.85-10.5-25.44 35.98-17.21-12.18 27.68-39.15-14.84-10.5-38.63 54.63 78.97 55.85 38.63-54.64zm21-76.08l52.36 11.75 19.51-15.25-69.1-15.24 9.44-60.89-19.47 15.22-9.19 59.48-25.38-32.43-14.93 11.69 59.6 76.17 14.93-11.68-19.89-25.42 2.12-13.4zm152.19-41.94A48.257 48.257 0 00441.16 156a51.075 51.075 0 00-17.89-47 48.317 48.317 0 00-23.41-10.3 52.804 52.804 0 00-47.58 18.1 48.213 48.213 0 00-10.65 23.26 51.075 51.075 0 0017.89 47 48.224 48.224 0 0023.41 10.3c2.492.379 5.009.569 7.53.57a52.139 52.139 0 0018.59-3.5 51.05 51.05 0 0021.46-15.15zm-8.61-25.92a30.235 30.235 0 01-19.41 23.85 30.179 30.179 0 01-30.35-4.93 32.676 32.676 0 01-11.25-29.56 30.185 30.185 0 0119.41-23.86 30.777 30.777 0 0111-2.08c1.656.001 3.308.141 4.94.42a30.281 30.281 0 0114.38 6.59 32.755 32.755 0 0111.25 29.57h.03zm133.39-67.9a27.063 27.063 0 00-11.7-10.07 36.28 36.28 0 00-17.17-3l-42.61 2.09 4.72 96.6 18.94-.92-1.83-37.54 23.66-1.16a36.393 36.393 0 0016.81-4.6 27.104 27.104 0 0010.66-11.17 31.953 31.953 0 00-1.48-30.28v.05zm-50.54 29.18l-1.11-22.88 23.28-1.14c4.38-.21 7.72.59 9.91 2.38 2.19 1.79 3.25 4.48 3.44 8.37.19 3.89-.67 6.77-2.62 8.75-1.95 1.98-5.24 3.16-9.61 3.38l-23.29 1.14zm131.47-32.4l-64 84.5 20.2 4.66 13.38-18.2 43.89 10.12 4 22.22 21 4.83-20.55-104-17.92-4.13zm10 61.9l-28.85-6.65 22.15-30 6.7 36.65zm175.11 19.63l-16.13-9.97-41.16 66.59-38.99-24.11 41.16-66.58-16.13-9.97L699.23 202l64.38 39.8-10.22 16.53 15.68 9.7 19.92-32.22-8.82-5.46 41.16-66.58zm-8.1 123.6l83.79-5.44-53.17 43.17 11.94 14.72 75.1-60.96-12.92-15.91-81.19 5.5 51.64-41.91-11.95-14.72-75.1 60.95 11.86 14.6zm68.18 104.05l80.95 22.34-64.4 23.34 6.46 17.83 90.94-32.96-6.99-19.27-78.5-21.43 62.52-22.66-6.45-17.82L875 373.74l6.41 17.68z" fill="#010101"/></svg><svg fill="none" viewBox="0 0 1080 1080" id="sign--sign-5" xmlns="http://www.w3.org/2000/svg"><path d="M540 1077.5a537.681 537.681 0 01-340.137-121.543A537.645 537.645 0 0164.765 289.079 537.643 537.643 0 01330.78 44.739a537.64 537.64 0 01410.96-2.226 537.623 537.623 0 01292.47 288.709c55.42 131.17 56.53 278.965 3.1 410.955a537.646 537.646 0 01-288.09 293.083A534.17 534.17 0 01540 1077.5z" fill="#fff"/><path d="M540 5a535.142 535.142 0 01524.25 428.896 535.139 535.139 0 01-51.16 355.91A535.131 535.131 0 01748.24 1033a535.207 535.207 0 01-409.596 2.85A535.176 535.176 0 01331.76 47 531.53 531.53 0 01540 5zm0-5C241.77 0 0 241.77 0 540s241.77 540 540 540 540-241.77 540-540S838.23 0 540 0z" fill="#000"/><path d="M540 1051.5a511.614 511.614 0 01-323.687-115.66A511.635 511.635 0 0187.749 301.218 511.632 511.632 0 01340.9 68.7a511.634 511.634 0 01669.6 272.538c52.75 124.858 53.79 265.544 2.91 391.172A511.645 511.645 0 01739.1 1011.3a508.121 508.121 0 01-199.1 40.2z" fill="#fff"/><path d="M540 31a509.127 509.127 0 01322.105 115.097 509.095 509.095 0 01176.575 292.948A509.118 509.118 0 01738.12 1009a509.15 509.15 0 01-389.246 2.2A509.129 509.129 0 01341.88 71 505.759 505.759 0 01540 31zm0-5C256.13 26 26 256.13 26 540s230.13 514 514 514 514-230.13 514-514S823.87 26 540 26z" fill="#000"/><path d="M540 874c184.463 0 334-149.537 334-334S724.463 206 540 206 206 355.537 206 540s149.537 334 334 334z" fill="#B9D26B" stroke="#000" stroke-width="5" stroke-miterlimit="10"/><path fill-rule="evenodd" clip-rule="evenodd" d="M558 430.73h-37.92l-86.6 256.35H363l107.91-317.63h138.16L717 687.08h-73.4L558 430.73z" fill="#000"/><path d="M285.49 812.39l-28.59 26.93-31.56-33.51 28.58-26.93-13.02-13.81-70.6 66.51 13.02 13.81 28.58-26.92 31.57 33.51-28.59 26.92 13.02 13.82 70.6-66.51-13.01-13.82zm105.29 75.74a52.912 52.912 0 00-45.33-23.49 48.421 48.421 0 00-24.51 7.57A51.254 51.254 0 00297.71 917a48.442 48.442 0 007.94 24.39 52.999 52.999 0 0043.48 23.53h1.85a48.44 48.44 0 0024.51-7.57 51.243 51.243 0 0023.23-44.8 48.522 48.522 0 00-7.94-24.42zM375.58 929a31.617 31.617 0 01-10.95 12.22 30.726 30.726 0 01-30.89 1.51 30.724 30.724 0 01-16.56-26.12 32.826 32.826 0 0114.61-28.19 30.733 30.733 0 0130.885-1.526A30.734 30.734 0 01379.25 913a31.675 31.675 0 01-3.67 16zm133.54-12a36.34 36.34 0 00-16.26-6.38L450.59 904l-15 95.83 18.76 2.93 5.81-37.26 12.44 2 23.4 41.8 23.75 3.7L495 969.52a27.8 27.8 0 0015.28-6.52 29.183 29.183 0 009.72-18.12 30.437 30.437 0 00-1.45-15.61 27.182 27.182 0 00-9.43-12.27zm-42.52 7.55l22.74 3.55c4.36.68 7.53 2.22 9.43 4.57 1.9 2.35 2.46 5.3 1.85 9.17-.61 3.87-2.1 6.55-4.56 8.17-2.46 1.62-6 2.16-10.37 1.48L463 948l3.6-23.45zm129.06 65.4l-3.04-20.98 43.75-6.34-2.61-18.01-43.75 6.34-3.04-20.98 47.61-6.9-2.61-18.01-66.4 9.62 13.91 95.99 66.4-9.61-2.61-18.02-47.61 6.9zM776.72 911l-18.45 8.79v1.91a30.124 30.124 0 01-4 15.74 26.996 26.996 0 01-12.1 10.73A28.93 28.93 0 01726.7 951a29.85 29.85 0 01-14.64-5.55 33.775 33.775 0 01-13.69-28.73 29.995 29.995 0 014.91-14.86 29 29 0 0112-10.27 27 27 0 0116-2.64 30.141 30.141 0 0114.72 6.84l1.47 1.22 18.45-8.79-2.81-3a48.213 48.213 0 00-16.48-11.56 46.58 46.58 0 00-19.56-3.66 50.996 50.996 0 00-39.63 21.64 48.51 48.51 0 00-8.45 24 49.86 49.86 0 004.91 25.6 49.873 49.873 0 0016.78 19.94 48.467 48.467 0 0023.93 8.54c1.3.11 2.6.16 3.9.16a50.01 50.01 0 0021.65-5 49.101 49.101 0 0016.23-12.26 46.321 46.321 0 009.47-17.44 48.358 48.358 0 001.41-20.08l-.55-4.1zm33.81-108.21l-13.28 12.79 35.91 100 15-14.39-8-21.21 32.59-31.36 20.89 8.77 15.51-14.93-98.62-39.67zm44.25 38.26l-21.45 20.65-13.06-35.11 34.51 14.46zM244.76 314.11l-29.93-25.42 29.79-35.09 29.94 25.41 12.28-14.47-73.94-62.77-12.29 14.47 29.94 25.41-29.79 35.1-29.94-25.42-12.28 14.47 73.94 62.77 12.28-14.46zM311 214.47a48.417 48.417 0 0024.76 6.74h.13a53.003 53.003 0 0044.37-25 48.507 48.507 0 007.12-24.65 51.247 51.247 0 00-24.73-44 48.588 48.588 0 00-24.75-6.74h-.13a53.006 53.006 0 00-44.38 25 48.37 48.37 0 00-7.11 24.64 51.242 51.242 0 0024.72 44v.01zm25.5-74.81h.59a30.637 30.637 0 0115.26 4.41A32.853 32.853 0 01368 171.76 30.728 30.728 0 01321.35 198a32.849 32.849 0 01-15.56-27.69 30.998 30.998 0 0130.75-30.6l-.04-.05zm165.03-21.31a29.142 29.142 0 003.3-20.35 30.235 30.235 0 00-6.44-14.28 27.119 27.119 0 00-12.92-8.53 36.37 36.37 0 00-17.47-.7L425.9 82l17 95.5 18.68-3.34L455 137l12.4-2.21 35.67 31.94 23.66-4.21-37.53-33.05a27.814 27.814 0 0012.33-11.12zm-17.67-7.66c-1.85 2.39-5 4-9.33 4.77l-22.66 4-4.16-23.3 22.66-4c4.34-.78 7.84-.36 10.4 1.25 2.56 1.61 4.05 4.21 4.74 8.07.69 3.86.15 6.87-1.65 9.21zm143.77 43.94l-47.74-5.97 2.64-21.04 43.87 5.49 2.26-18.05-43.87-5.5 2.63-21.04 47.74 5.98 2.27-18.05-66.57-8.34-12.06 96.24 66.57 8.34 2.26-18.06zm74.68 47.69A49.205 49.205 0 00722.1 207h1a46.247 46.247 0 0018.44-3.81A48.224 48.224 0 00758 191.54l2.78-3-18.52-8.64-1.46 1.23a30.083 30.083 0 01-14.67 7 27.002 27.002 0 01-16-2.5 29.003 29.003 0 01-12.06-10.17 29.933 29.933 0 01-5-14.82 33.753 33.753 0 0113.45-28.85 29.995 29.995 0 0114.59-5.67 29.112 29.112 0 0115.54 2.7 27.067 27.067 0 0112.2 10.64 30.099 30.099 0 014.09 15.7V157l18.52 8.64.52-4.06a48.324 48.324 0 00-1.58-20.07 46.371 46.371 0 00-9.61-17.36 51.068 51.068 0 00-41.92-16.8 48.424 48.424 0 00-23.87 8.77 51.614 51.614 0 00-21.31 45.71 48.458 48.458 0 008.64 23.89 49.454 49.454 0 0019.98 16.6zm129.98 67.45L824.36 291l15.54 14.91 35.74-100.13L862.33 193l-98.54 39.89 15 14.37 20.88-8.81 32.62 31.32zm-14.6-38.85l34.56-14.46-13.07 35.07-21.49-20.61z" fill="#000"/></svg><svg fill="none" viewBox="0 0 1080 1080" id="sign--sign-6" xmlns="http://www.w3.org/2000/svg"><path d="M540 1077.5a537.681 537.681 0 01-340.137-121.543A537.645 537.645 0 0164.765 289.079 537.643 537.643 0 01330.78 44.739a537.64 537.64 0 01410.96-2.226 537.623 537.623 0 01292.47 288.709c55.42 131.17 56.53 278.965 3.1 410.955a537.646 537.646 0 01-288.09 293.083A534.17 534.17 0 01540 1077.5z" fill="#fff"/><path d="M540 5a535.142 535.142 0 01524.25 428.896 535.139 535.139 0 01-51.16 355.91A535.131 535.131 0 01748.24 1033a535.207 535.207 0 01-409.596 2.85A535.176 535.176 0 01331.76 47 531.53 531.53 0 01540 5zm0-5C241.77 0 0 241.77 0 540s241.77 540 540 540 540-241.77 540-540S838.23 0 540 0z" fill="#000"/><path d="M540 1051.5a511.614 511.614 0 01-323.687-115.66A511.635 511.635 0 0187.749 301.218 511.632 511.632 0 01340.9 68.7a511.634 511.634 0 01669.6 272.538c52.75 124.858 53.79 265.544 2.91 391.172A511.645 511.645 0 01739.1 1011.3a508.121 508.121 0 01-199.1 40.2z" fill="#fff"/><path d="M540 31a509.127 509.127 0 01322.105 115.097 509.095 509.095 0 01176.575 292.948A509.118 509.118 0 01738.12 1009a509.15 509.15 0 01-389.246 2.2A509.129 509.129 0 01341.88 71 505.759 505.759 0 01540 31zm0-5C256.13 26 26 256.13 26 540s230.13 514 514 514 514-230.13 514-514S823.87 26 540 26z" fill="#000"/><path d="M540 874c184.463 0 334-149.537 334-334S724.463 206 540 206 206 355.537 206 540s149.537 334 334 334z" fill="#F8B001" stroke="#000" stroke-width="5" stroke-miterlimit="10"/><path fill-rule="evenodd" clip-rule="evenodd" d="M558 430.73h-37.92l-86.6 256.35H363l107.91-317.63h138.16L717 687.08h-73.4L558 430.73z" fill="#000"/><path d="M182.11 641.66L76.75 629.2l6.24 19.9 78.45 8.55-59.55 51.7 6.36 20.28 79.37-70.4-5.51-17.57zm-48.92 136.66l12.4 16.68 22-5.23 26.95 36.14-11.28 19.58 12.87 17.25L247.75 770l-11-14.76-103.56 23.08zm89.73-1.61L204.33 809l-17.72-23.76 36.31-8.53zm119.58 81.93a54.757 54.757 0 00-14.39-14.24 47.995 47.995 0 00-16.88-7.62 37.107 37.107 0 00-18 .27 35.115 35.115 0 00-16 9.5l-2.51 2.52 15.88 11.16 1.78-1.74a15.005 15.005 0 0111.73-4.63A26.777 26.777 0 01318 859c5.21 3.66 8.6 7.43 10.07 11.21a9.362 9.362 0 01-1.15 9.46 9.863 9.863 0 01-7.48 4.2c-3.41.36-7.25-.94-11.43-3.87l-14.36-10-10.24 14.57 14.35 10.07c5.42 3.8 8.78 7.46 9.73 10.57a8.502 8.502 0 01-1.19 7.93 10.366 10.366 0 01-9.09 4.56c-4.32 0-9.31-2-14.86-5.86-5.08-3.58-8.56-7.58-10.34-11.92-1.78-4.34-1.82-9.21-.25-14.79l.57-2.05-15.46-10.86-1.53 3.2c-4.43 9.23-5.06 18.58-1.87 27.77 3.14 9 9.39 16.87 18.58 23.32 9.4 6.61 18.53 9.95 27.13 9.95h.8c9.18-.21 16.62-4.28 22.09-12.08 5.29-7.53 6.2-15.48 2.72-23.69a24.628 24.628 0 008.6-2.07 25.137 25.137 0 0010.32-8.66 23.85 23.85 0 004.48-15.28 31.999 31.999 0 00-5.69-16.04zm27.71 120.11l63.86 20.15 5.48-17.36-45.78-14.43 6.36-20.13 42.06 13.26 5.47-17.35-42.06-13.27 6.35-20.13 45.77 14.44 5.47-17.35-63.86-20.15-29.12 92.32zm197.47-61.41a36.213 36.213 0 00-17-3.87l-42.7-.21-.47 96.8 19 .1.19-37.62 23.72.12h.24a36.25 36.25 0 0016.8-3.7 27.102 27.102 0 0011.25-10.59 31.923 31.923 0 00.15-30.34 27.072 27.072 0 00-11.18-10.69zm-40.81 14.21l23.33.11c4.4 0 7.69 1 9.78 2.91 2.09 1.91 3 4.65 3 8.55 0 3.9-1 6.73-3.1 8.61-2.1 1.88-5.44 2.87-9.78 2.86l-23.34-.11.11-22.93zm160.84-45.14l-64.1 19.39 28.03 92.65 18.16-5.49-22.69-74.99 45.94-13.9-5.34-17.66zM802 851.65a30.166 30.166 0 00-11.63-10.47 27.004 27.004 0 00-15.23-2.61 36.282 36.282 0 00-16.24 6.34l-35.5 23.76 53.89 80.42 15.76-10.56-20.94-31.25 19.7-13.21a36.274 36.274 0 0012-12.61 27.067 27.067 0 003.38-15.08 30.191 30.191 0 00-5.19-14.73zm-14 19.78c-.67 2.77-2.86 5.41-6.51 7.85l-19.38 13-12.76-19 19.38-13c3.66-2.45 6.93-3.48 9.73-3.08 2.8.4 5.1 2.17 7.27 5.41s2.86 6.11 2.21 8.82h.06zm40.36-89.93l47.83 94.7 13.07-16.11-10.48-20 28.39-35 21.76 6.12 13.56-16.72L840 767.2l-11.64 14.3zm24.2 8.12l35.87 10.07-18.68 23-17.19-33.07zM977.49 679l4.22-12.25A41.432 41.432 0 00984 647a30.192 30.192 0 00-7.28-16 36.333 36.333 0 00-32.33-11.14 30.185 30.185 0 00-15.62 8.14 41.46 41.46 0 00-10.37 16.9l-4.22 12.24-15.33-5.28-6.18 17.93 15.33 5.27-4.22 12.25a41.569 41.569 0 00-2.26 19.69 30.318 30.318 0 007.29 16 34.544 34.544 0 0014.77 9.61 35.9 35.9 0 0011.78 2 32.016 32.016 0 005.78-.52 30.193 30.193 0 0015.57-8.09 41.506 41.506 0 0010.37-16.9l4.22-12.24 15.33 5.28 6.18-17.93-15.32-5.21zm-23.63 11.92l-4.23 12.25c-1.82 5.28-4.45 8.86-7.82 10.64-3.37 1.78-7.22 1.85-11.83.26s-7.62-4-9.16-7.5-1.42-7.92.39-13.2l4.23-12.25 28.42 9.8zm10.4-30.18l-4.26 12.2-28.42-9.8 4.22-12.25c1.82-5.28 4.45-8.86 7.82-10.64 3.37-1.78 7.22-1.86 11.84-.26s7.62 4 9.16 7.5 1.46 7.92-.36 13.2v.05zm-783.5-212.77l-58.19-53.31 78.6-6.43 6.87-20.12-105.64 9.79-5.95 17.42 77.56 72.39 6.75-19.74zm49.86-114.14L219.85 314l27.88-35.43 21.85 5.8 13.31-16.91L180 241.67l-11.39 14.47 49.21 94 12.8-16.31zm-37.73-69.93l36 9.55-18.34 23.29-17.66-32.84zm138.46-91.69a24.728 24.728 0 001.14-8.77 25.09 25.09 0 00-4.39-12.73 23.824 23.824 0 00-12.66-9.65 32.075 32.075 0 00-17-.42A54.742 54.742 0 00280 149a48.046 48.046 0 00-13.16 13 37.13 37.13 0 00-6.19 16.92 35.258 35.258 0 003.13 18.37l1.46 3.25 16.1-10.84-1-2.29a15.006 15.006 0 01-.12-12.61 26.636 26.636 0 019.82-11.14c5.28-3.56 10-5.37 14.07-5.39h.06a9.33 9.33 0 018.36 4.46 9.842 9.842 0 011.24 8.48c-.87 3.32-3.47 6.44-7.7 9.29l-14.54 9.79 9.94 14.77 14.53-9.77c5.5-3.69 10.12-5.53 13.36-5.3a8.537 8.537 0 017 3.95 10.377 10.377 0 011 10.12c-1.54 4-5.17 8-10.79 11.77-5.16 3.47-10.15 5.29-14.83 5.39-4.68.1-9.26-1.59-13.9-5.05l-1.71-1.27-15.67 10.55 2.44 2.55c7 7.44 15.54 11.37 25.27 11.67h1.3c9.11 0 18.23-3 27.12-9 9.83-6.62 16.32-14.2 19.28-22.52 3.09-8.66 1.95-17.06-3.37-25-5.14-7.56-12.25-11.25-21.15-10.94zm84.76-2.77l-6.22-20.17 42.15-12.99-5.36-17.39-42.15 12.99-6.22-20.17 45.87-14.14-5.37-17.38-63.99 19.73 28.53 92.5 63.99-19.73-5.36-17.39-45.87 14.14zm109.69-40.28l23.73-.12a36.334 36.334 0 0017-3.86 27.163 27.163 0 0011.15-10.7 31.997 31.997 0 00-.16-30.34 27.101 27.101 0 00-11.25-10.59 36.24 36.24 0 00-16.79-3.69h-.26l-42.69.22.49 96.8 19-.1-.22-37.62zm-.2-41l23.33-.12c4.4 0 7.69.93 9.81 2.81s3 4.63 3.07 8.53c.07 3.9-1 6.74-3 8.64-2 1.9-5.37 2.93-9.76 3l-23.33.12-.12-22.98zm91.88 85.11l18.24 5.21 21.49-75.34 46.16 13.16 5.06-17.74-64.4-18.37-26.55 93.08zm131.67 11.34l20.05 12.67a36.363 36.363 0 0016.42 5.9 27.125 27.125 0 0015.15-3A31.94 31.94 0 00817 174.51a27.067 27.067 0 00-3.79-15 36.203 36.203 0 00-12.37-12.28l-36.09-22.8L713 206.28l16 10.14 20.15-31.81zm41.61-22.19c3.72 2.35 6 4.92 6.76 7.65.76 2.73.08 5.54-2 8.84s-4.44 5.16-7.18 5.66c-2.74.5-6.11-.42-9.82-2.77l-19.73-12.46L771 150l19.76 12.42zm52.33 154.88l14.15 16.22 44.39-96.36-12.11-13.87L788 254.21l13.64 15.64 21.52-6.91 29.64 34-9.71 20.36zm-1.26-60.3l35.56-11.28-16.06 33.62-19.5-22.34zm56.85 84.8A30.191 30.191 0 00892 358a41.349 41.349 0 003 19.59l4.7 12.07-15.11 5.88 6.88 17.68 15.11-5.88 4.7 12.07a41.474 41.474 0 0011 16.47 30.19 30.19 0 0015.88 7.46c1.494.212 3.001.319 4.51.32a35.568 35.568 0 0013-2.54A34.445 34.445 0 00970.1 431a30.193 30.193 0 006.65-16.23 41.45 41.45 0 00-3-19.59L969 383.07l15.11-5.89-6.88-17.67-15.11 5.88-4.7-12.07a41.652 41.652 0 00-11-16.48 30.247 30.247 0 00-15.88-7.45 36.312 36.312 0 00-31.86 12.41zm25.15 58.87l28-10.91 4.7 12.08c2 5.2 2.34 9.63.92 13.17-1.42 3.54-4.31 6.09-8.86 7.86-4.55 1.77-8.42 1.84-11.84.2-3.42-1.64-6.2-5.12-8.23-10.33l-4.69-12.07zm-12.51-42.92c1.41-3.51 4.31-6.08 8.86-7.86 4.55-1.78 8.42-1.84 11.84-.2 3.42 1.64 6.21 5.12 8.23 10.32l4.75 12.08-28 10.9-4.7-12.07c-2.08-5.2-2.39-9.63-.98-13.17z" fill="#000"/></svg><svg viewBox="0 0 50 50" id="socials--fb" xmlns="http://www.w3.org/2000/svg"><g clip-path="url(#kclip0)"><path d="M33.327 8.302h4.565V.352C37.104.244 34.396 0 31.242 0c-6.581 0-11.09 4.14-11.09 11.748v7.002H12.89v8.887h7.262V50h8.904V27.64h6.97l1.105-8.888h-8.077V12.63c.002-2.569.694-4.327 4.273-4.327z"/></g><defs><clipPath id="kclip0"><path fill="#fff" d="M0 0h50v50H0z"/></clipPath></defs></svg><svg viewBox="0 0 50 50" id="socials--instagram" xmlns="http://www.w3.org/2000/svg"><g clip-path="url(#lclip0)"><path d="M25.008 12.163c-7.09 0-12.829 5.745-12.829 12.829 0 7.09 5.746 12.829 12.83 12.829 7.089 0 12.828-5.746 12.828-12.83 0-7.089-5.745-12.828-12.829-12.828zm0 21.156a8.324 8.324 0 01-8.327-8.327c0-4.6 3.727-8.327 8.327-8.327s8.327 3.727 8.327 8.327a8.323 8.323 0 01-8.327 8.327z"/><path d="M35.309.158c-4.6-.215-15.994-.205-20.598 0C10.665.348 7.096 1.324 4.219 4.2-.589 9.01.025 15.49.025 24.991c0 9.725-.541 16.054 4.194 20.79 4.827 4.825 11.4 4.193 20.79 4.193 9.633 0 12.958.007 16.364-1.312 4.632-1.798 8.127-5.938 8.469-13.373.217-4.602.204-15.994 0-20.598C49.429 5.914 44.719.59 35.309.158zm7.28 42.441c-3.151 3.152-7.524 2.871-17.64 2.871-10.418 0-14.595.154-17.642-2.902-3.51-3.494-2.875-9.104-2.875-17.61 0-11.51-1.182-19.8 10.37-20.392 2.654-.094 3.436-.125 10.117-.125l.094.062c11.102 0 19.812-1.162 20.335 10.388.119 2.635.146 3.427.146 10.098-.002 10.296.194 14.498-2.904 17.61z"/><path d="M38.346 14.655a2.998 2.998 0 100-5.996 2.998 2.998 0 000 5.996z"/></g><defs><clipPath id="lclip0"><path fill="#fff" d="M0 0h50v50H0z"/></clipPath></defs></svg><svg viewBox="0 0 50 50" id="socials--vk" xmlns="http://www.w3.org/2000/svg"><g clip-path="url(#mclip0)"><path d="M41.49 27.142c-.809-1.02-.578-1.475 0-2.387.01-.01 6.683-9.232 7.37-12.359l.005-.002c.341-1.14 0-1.977-1.653-1.977h-5.466c-1.392 0-2.034.719-2.377 1.523 0 0-2.784 6.662-6.721 10.981-1.27 1.248-1.858 1.648-2.552 1.648-.342 0-.873-.4-.873-1.54V12.394c0-1.367-.39-1.977-1.542-1.977h-8.596c-.873 0-1.391.638-1.391 1.231 0 1.296 1.969 1.594 2.173 5.24v7.91c0 1.734-.315 2.052-1.013 2.052-1.858 0-6.369-6.69-9.041-14.346-.54-1.485-1.067-2.085-2.47-2.085H1.876C.315 10.42 0 11.138 0 11.942c0 1.42 1.858 8.485 8.642 17.819 4.52 6.37 10.887 9.823 16.679 9.823 3.481 0 3.906-.767 3.906-2.086 0-6.087-.314-6.662 1.43-6.662.808 0 2.2.4 5.45 3.473 3.714 3.643 4.324 5.275 6.403 5.275h5.467c1.558 0 2.348-.767 1.894-2.28-1.04-3.18-8.065-9.725-8.381-10.162z"/></g><defs><clipPath id="mclip0"><path fill="#fff" d="M0 0h50v50H0z"/></clipPath></defs></svg><svg viewBox="0 0 50 50" id="socials--wa" xmlns="http://www.w3.org/2000/svg"><g clip-path="url(#nclip0)"><path d="M36.473 29.806l-.019.157c-4.581-2.284-5.06-2.588-5.652-1.7-.41.614-1.606 2.008-1.967 2.42-.364.407-.727.438-1.345.157-.625-.313-2.632-.969-5.007-3.094-1.85-1.656-3.091-3.687-3.458-4.312-.61-1.055.667-1.205 1.83-3.405.207-.437.101-.78-.053-1.091-.156-.313-1.4-3.375-1.92-4.596-.5-1.217-1.015-1.063-1.4-1.063-1.2-.104-2.078-.087-2.85.717-3.363 3.696-2.515 7.508.362 11.563 5.654 7.4 8.666 8.762 14.175 10.654 1.487.473 2.844.406 3.916.252 1.196-.19 3.682-1.502 4.2-2.971.532-1.469.532-2.688.375-2.969-.154-.281-.562-.437-1.187-.718z"/><path d="M42.75 7.186C26.731-8.299.22 2.932.21 24.778a24.66 24.66 0 003.323 12.385L0 50.001l13.198-3.442C29.667 55.455 49.992 43.642 50 24.79c0-6.616-2.583-12.843-7.281-17.523l.031-.08zm3.087 17.535c-.012 15.903-17.468 25.834-31.275 17.717l-.75-.446L6 44.024l2.094-7.594-.498-.781C-.996 21.97 8.875 4.096 25.15 4.096c5.53 0 10.719 2.157 14.627 6.063a20.392 20.392 0 016.06 14.562z"/></g><defs><clipPath id="nclip0"><path fill="#fff" d="M0 0h50v50H0z"/></clipPath></defs></svg><svg viewBox="0 0 37 36" id="star" xmlns="http://www.w3.org/2000/svg"><path d="M15.81 2.451c1.1-2.23 4.28-2.23 5.38 0l3.225 6.533a3 3 0 002.258 1.641l7.21 1.048c2.46.358 3.444 3.382 1.663 5.117l-5.217 5.085a3 3 0 00-.863 2.656l1.232 7.18c.42 2.451-2.152 4.32-4.353 3.163l-6.449-3.39a3 3 0 00-2.792 0l-6.449 3.39c-2.2 1.157-4.773-.712-4.353-3.162l1.232-7.181a3 3 0 00-.863-2.655L1.454 16.79c-1.78-1.735-.798-4.76 1.663-5.117l7.21-1.048a3 3 0 002.258-1.64L15.81 2.45z"/></svg><svg viewBox="0 0 30 30" id="zoom" xmlns="http://www.w3.org/2000/svg"><path d="M29.658 28.009l-7.321-7.321a12.567 12.567 0 002.916-8.061C25.253 5.664 19.59 0 12.627 0 5.664 0 0 5.664 0 12.627c0 6.962 5.664 12.626 12.627 12.626 3.061 0 5.872-1.096 8.06-2.916l7.322 7.321a1.162 1.162 0 001.65 0 1.166 1.166 0 000-1.65zM2.333 12.627c0-5.676 4.618-10.294 10.294-10.294S22.92 6.95 22.92 12.627 18.303 22.92 12.627 22.92c-5.676 0-10.294-4.617-10.294-10.293z"/><path d="M18.357 11.46h-4.564V6.896a1.166 1.166 0 10-2.333 0v4.564H6.897a1.166 1.166 0 100 2.333h4.563v4.564a1.166 1.166 0 102.333 0v-4.564h4.564a1.166 1.166 0 100-2.333z"/></svg></svg>